<svg width="300" height="300" viewBox="0 0 300 300" fill="none" xmlns="http://www.w3.org/2000/svg">
<path fill-rule="evenodd" clip-rule="evenodd" d="M74.8199 159.053C84.0799 150.803 88.8199 144.693 85.3899 139.993C81.9599 135.293 71.9499 139.173 62.6799 147.423C53.4099 155.673 48.1799 164.923 50.9899 168.073C53.7999 171.223 65.5499 167.303 74.8199 159.073V159.053Z" fill="#CDB9DB"/>
<path d="M54.2897 170.053C53.5732 170.106 52.8534 170.01 52.1766 169.769C51.4997 169.527 50.8808 169.147 50.3597 168.653C48.7097 166.793 49.1197 163.523 51.5697 159.203C54.4043 154.531 57.9503 150.331 62.0797 146.753C69.3297 140.303 76.8597 136.593 81.7597 137.113C82.6114 137.167 83.4413 137.405 84.1922 137.811C84.9431 138.217 85.5973 138.78 86.1097 139.463C90.1097 144.833 84.6997 151.463 75.4197 159.723C71.1275 163.588 66.1663 166.638 60.7797 168.723C58.7069 169.529 56.5126 169.979 54.2897 170.053ZM80.8097 138.873C76.4297 138.873 69.6697 142.403 63.2697 148.103C59.2701 151.546 55.8351 155.595 53.0897 160.103C51.1397 163.533 50.6097 166.293 51.6597 167.463C52.7097 168.633 56.0597 168.463 60.1697 166.983C65.3179 164.982 70.0612 162.065 74.1697 158.373C84.3597 149.363 87.3597 144.193 84.6597 140.533C84.2918 140.055 83.8254 139.662 83.2922 139.381C82.759 139.1 82.1715 138.937 81.5697 138.903C81.3597 138.883 81.0697 138.873 80.8097 138.873Z" fill="#8250A3"/>
<path fill-rule="evenodd" clip-rule="evenodd" d="M86.5095 143.653L92.8395 170.353V198.453L51.2695 168.353C54.5195 170.973 65.8395 167.043 74.8095 159.053C81.8695 152.763 86.3595 147.723 86.5095 143.653Z" fill="#ECE5F1"/>
<path d="M92.8397 199.303C92.6489 199.308 92.4619 199.248 92.3097 199.133L50.9697 169.253L50.6997 169.053C50.5184 168.904 50.4016 168.691 50.3737 168.458C50.3457 168.225 50.4088 167.99 50.5497 167.803C50.6909 167.615 50.9004 167.491 51.1327 167.458C51.3649 167.424 51.601 167.483 51.7897 167.623L52.0097 167.783C54.8197 169.553 65.0797 166.513 74.2097 158.383C82.0397 151.383 85.4497 146.973 85.6097 143.563C85.6183 143.346 85.705 143.139 85.8539 142.981C86.0027 142.823 86.2037 142.724 86.4197 142.703C86.6428 142.67 86.8701 142.722 87.0558 142.851C87.2414 142.979 87.3715 143.172 87.4197 143.393L93.7497 170.103C93.7602 170.169 93.7602 170.236 93.7497 170.303V198.403C93.7491 198.569 93.7032 198.733 93.6169 198.876C93.5306 199.018 93.4071 199.135 93.2597 199.213C93.1279 199.273 92.9846 199.304 92.8397 199.303ZM55.0897 170.003L91.9397 196.653V170.423L86.4397 147.223C84.8897 150.483 81.4397 154.393 75.4397 159.733C68.8197 165.593 60.4997 169.653 55.0897 170.003Z" fill="#8250A3"/>
<path d="M71.4706 149.873C71.2816 149.873 71.0973 149.814 70.9432 149.705C70.7891 149.596 70.6728 149.441 70.6106 149.263C67.8606 141.203 70.1006 132.893 77.2706 124.563C77.4284 124.385 77.6498 124.275 77.8872 124.259C78.1246 124.242 78.3591 124.319 78.5406 124.473C78.6306 124.549 78.7046 124.643 78.7584 124.749C78.8122 124.854 78.8446 124.969 78.8539 125.087C78.8632 125.205 78.8491 125.324 78.8125 125.436C78.7759 125.549 78.7175 125.653 78.6406 125.743C71.9106 133.553 69.7806 141.263 72.3606 148.653C72.437 148.878 72.4209 149.125 72.316 149.338C72.211 149.552 72.0257 149.715 71.8006 149.793C71.6959 149.838 71.5843 149.865 71.4706 149.873Z" fill="#8250A3"/>
<path d="M36.89 168.183C36.7692 168.183 36.6495 168.159 36.5379 168.113C36.4263 168.067 36.325 167.999 36.24 167.913C32.35 163.913 30.63 160.663 30.99 158.013C31.126 157.16 31.4638 156.352 31.9752 155.656C32.4866 154.961 33.1568 154.397 33.93 154.013C42.16 149.283 52.17 149.523 63.71 154.713C63.8186 154.76 63.9166 154.829 63.9985 154.915C64.0804 155.001 64.1446 155.102 64.1873 155.212C64.2301 155.323 64.2505 155.441 64.2476 155.559C64.2446 155.678 64.2183 155.794 64.17 155.903C64.0718 156.12 63.8913 156.29 63.6682 156.374C63.445 156.458 63.1975 156.451 62.98 156.353C51.98 151.413 42.53 151.143 34.84 155.573C34.3093 155.818 33.8446 156.187 33.4847 156.647C33.1247 157.108 32.8797 157.648 32.77 158.223C32.5 160.223 34.14 163.133 37.53 166.623C37.6144 166.706 37.6814 166.804 37.7271 166.913C37.7729 167.022 37.7964 167.14 37.7964 167.258C37.7964 167.376 37.7729 167.493 37.7271 167.602C37.6814 167.711 37.6144 167.81 37.53 167.893C37.449 167.982 37.3503 168.055 37.2402 168.104C37.1301 168.154 37.0109 168.181 36.89 168.183Z" fill="#8250A3"/>
<path d="M38.5501 194.853C35.2101 194.853 31.4601 189.183 30.5501 184.313C29.9801 181.373 29.0001 179.523 27.9201 179.363C27.4601 179.293 25.7101 179.443 23.0501 184.433C21.6001 187.163 20.0501 188.493 18.2301 188.493H18.1801C15.8601 188.493 13.5501 186.103 11.1801 181.273C11.075 181.059 11.0581 180.812 11.1329 180.586C11.2077 180.36 11.3683 180.172 11.5801 180.063C11.6858 180.009 11.8009 179.978 11.919 179.969C12.037 179.96 12.1557 179.975 12.2681 180.012C12.3805 180.049 12.4844 180.108 12.574 180.185C12.6636 180.263 12.737 180.357 12.7901 180.463C15.3601 185.863 17.2801 186.653 18.1601 186.653C19.5001 186.653 20.6701 184.973 21.4201 183.543C23.7201 179.233 25.9901 177.213 28.1401 177.543C30.1401 177.833 31.5101 179.983 32.2801 183.933C33.1301 188.323 36.4701 193.163 38.6201 193.013C39.9001 192.923 40.8001 190.463 41.0301 186.413C41.3901 179.933 42.8101 176.413 45.2601 176.103C48.1001 175.703 51.2601 179.863 54.0301 187.553C54.1105 187.777 54.0988 188.024 53.9976 188.239C53.8964 188.455 53.7139 188.622 53.4901 188.703C53.2645 188.78 53.0177 188.766 52.8027 188.663C52.5876 188.56 52.4215 188.377 52.3401 188.153C49.7201 180.803 46.9401 177.683 45.5201 177.883C44.4401 178.043 43.1601 180.393 42.8201 186.513C42.5301 191.853 41.1601 194.643 38.7401 194.813L38.5501 194.853Z" fill="#8250A3"/>
<path d="M66.6695 134.653H66.5195C60.0195 133.553 56.7195 131.973 55.8295 129.503C55.1795 127.713 55.8795 125.663 57.9695 123.233C60.5595 120.613 60.9695 118.233 60.3595 117.103C59.7495 115.973 58.3595 115.853 56.3595 116.373C51.8795 117.563 49.1395 117.423 47.9695 115.923C47.1095 114.823 47.2695 113.173 48.4595 111.023C49.5195 109.103 49.7895 107.633 49.2995 106.533C48.5795 104.963 46.1495 103.733 41.8395 102.773C41.7241 102.748 41.6149 102.7 41.5181 102.633C41.4213 102.566 41.3388 102.48 41.2756 102.38C41.2123 102.28 41.1694 102.169 41.1495 102.053C41.1296 101.937 41.133 101.818 41.1595 101.703C41.1843 101.587 41.2318 101.478 41.2992 101.381C41.3666 101.285 41.4526 101.202 41.5522 101.139C41.6517 101.076 41.7629 101.033 41.8792 101.013C41.9954 100.993 42.1145 100.996 42.2295 101.023C47.2295 102.133 49.9495 103.613 50.9395 105.793C51.6795 107.443 51.3895 109.443 50.0295 111.893C49.2595 113.293 49.0295 114.353 49.3895 114.813C49.8795 115.443 51.8395 115.713 55.8895 114.633C58.6895 113.893 60.8895 114.463 61.8895 116.193C63.1395 118.353 62.1095 121.593 59.2695 124.453C57.6995 126.273 57.0895 127.783 57.4895 128.883C58.1095 130.603 61.2395 131.943 66.7895 132.883C67.0171 132.922 67.2206 133.048 67.3568 133.235C67.4931 133.422 67.5514 133.654 67.5195 133.883C67.4913 134.091 67.3906 134.282 67.235 134.423C67.0795 134.564 66.8792 134.645 66.6695 134.653Z" fill="#8250A3"/>
<path d="M73.61 184.873C73.383 184.873 73.1641 184.788 72.9972 184.634C72.8302 184.48 72.7277 184.269 72.71 184.043C72.6962 183.923 72.7066 183.802 72.7407 183.686C72.7747 183.57 72.8317 183.462 72.9082 183.369C72.9847 183.276 73.0791 183.199 73.186 183.143C73.2928 183.087 73.4098 183.053 73.53 183.043C82.11 182.343 87.74 178.983 90.75 172.773C90.8554 172.56 91.0408 172.397 91.2655 172.321C91.4903 172.244 91.7364 172.259 91.95 172.363C92.1647 172.466 92.3294 172.651 92.4082 172.876C92.4869 173.101 92.4732 173.348 92.37 173.563C89.1 180.293 82.81 184.083 73.68 184.833L73.61 184.873Z" fill="#8250A3"/>
<path d="M65.8594 179.453C65.6392 179.452 65.4266 179.372 65.2611 179.227C65.0956 179.081 64.9884 178.881 64.9594 178.663C64.9454 178.545 64.9548 178.426 64.987 178.312C65.0192 178.198 65.0735 178.092 65.1469 177.999C65.2203 177.906 65.3113 177.828 65.4147 177.771C65.5181 177.713 65.6318 177.676 65.7494 177.663C71.6619 177.058 77.2771 174.771 81.9294 171.073C82.1142 170.924 82.3502 170.854 82.5861 170.879C82.8221 170.903 83.0389 171.019 83.1894 171.203C83.2646 171.294 83.3209 171.4 83.3551 171.514C83.3892 171.627 83.4006 171.747 83.3885 171.865C83.3765 171.983 83.3412 172.097 83.2847 172.202C83.2282 172.306 83.1516 172.398 83.0594 172.473C78.1467 176.388 72.217 178.817 65.9694 179.473L65.8594 179.453Z" fill="#8250A3"/>
<path d="M224.388 87.9611C244.765 90.8896 261.942 88.6795 262.755 83.0247C263.568 77.3698 247.708 70.4116 227.331 67.4831C206.954 64.5546 189.777 66.7647 188.964 72.4196C188.152 78.0744 204.011 85.0326 224.388 87.9611Z" stroke="#FFAD01" stroke-width="1.8" stroke-linecap="round" stroke-linejoin="round"/>
<path d="M235.208 82.1496C244.02 63.5447 246.977 46.4801 241.814 44.0347C236.651 41.5893 225.322 54.6893 216.511 73.2942C207.699 91.8992 204.741 108.964 209.904 111.409C215.068 113.855 226.396 100.755 235.208 82.1496Z" stroke="#FFAD01" stroke-width="1.8" stroke-linecap="round" stroke-linejoin="round"/>
<path d="M235.15 73.1732C226.097 54.6845 214.599 41.733 209.468 44.2453C204.337 46.7576 207.516 63.7824 216.569 82.2711C225.622 100.76 237.12 113.711 242.251 111.199C247.382 108.687 244.203 91.662 235.15 73.1732Z" stroke="#FFAD01" stroke-width="1.8" stroke-linecap="round" stroke-linejoin="round"/>
<path d="M243.687 61.6933C245.317 61.5507 246.523 60.1136 246.38 58.4835C246.238 56.8534 244.801 55.6475 243.17 55.7901C241.54 55.9327 240.334 57.3698 240.477 59C240.62 60.6301 242.057 61.836 243.687 61.6933Z" fill="white" stroke="#FFAD01" stroke-width="1.8" stroke-linecap="round" stroke-linejoin="round"/>
<path d="M244.267 101.067C245.897 100.924 247.103 99.4872 246.96 97.857C246.818 96.2269 245.381 95.021 243.75 95.1636C242.12 95.3063 240.914 96.7434 241.057 98.3735C241.2 100.004 242.637 101.21 244.267 101.067Z" fill="white" stroke="#FFAD01" stroke-width="1.8" stroke-linecap="round" stroke-linejoin="round"/>
<path d="M202.495 85.5713C204.125 85.4287 205.331 83.9916 205.189 82.3614C205.046 80.7313 203.609 79.5254 201.979 79.668C200.349 79.8107 199.143 81.2478 199.285 82.8779C199.428 84.508 200.865 85.7139 202.495 85.5713Z" stroke="#FFAD01" stroke-width="1.8" stroke-linecap="round" stroke-linejoin="round"/>
<path fill-rule="evenodd" clip-rule="evenodd" d="M222.93 208.511C223.07 208.484 223.214 208.47 223.356 208.47C224.44 208.47 225.372 209.236 225.583 210.298C225.6 210.415 225.61 210.535 225.61 210.653C225.61 211.765 224.833 212.727 223.747 212.961C215.15 214.981 204.222 217.541 189.907 220.898C170.335 225.483 141.951 232.131 97.1963 242.619C87.35 244.922 76.6293 244.329 74.3889 240.957C72.21 237.501 79.4227 233.069 90.1201 231.249C137.892 223.079 167.686 217.979 188.025 214.493C202.824 211.954 214.096 210.029 222.928 208.513L222.931 208.511H222.93Z" fill="#333333"/>
<path fill-rule="evenodd" clip-rule="evenodd" d="M85.376 237.215V81.0386C85.3764 80.4954 85.4092 79.9491 85.4652 79.4084C85.9524 74.963 88.2744 70.9171 91.8643 68.2515C95.5743 65.4922 100.082 64 104.707 64C104.803 64 104.906 64.0028 105.001 64.0028C105.848 64.002 106.698 64.0532 107.539 64.1404L211.413 74.8174C215.345 75.2617 218.967 77.1851 221.542 80.1907C223.746 82.6964 225.156 85.808 225.582 89.1179C225.737 89.9579 225.817 90.817 225.817 91.6724V210.588C225.817 210.869 225.687 211.134 225.465 211.306C225.153 211.94 224.56 212.392 223.866 212.528L88.1964 239.422C88.0184 239.465 87.8345 239.488 87.6504 239.488C87.6497 239.488 87.6488 239.488 87.648 239.488C86.3938 239.488 85.3764 238.47 85.3764 237.216C85.3764 237.215 85.3764 237.215 85.3764 237.215L85.376 237.215V237.215Z" fill="#00AB6B"/>
<path fill-rule="evenodd" clip-rule="evenodd" d="M95.0909 235.51L223.897 209.765V91.6679C223.897 88.5368 222.674 85.5575 220.687 83.2878C218.719 81.0413 216.006 79.4923 212.996 79.1848L112.931 68.8989C112.231 68.8269 111.521 68.7917 110.804 68.7917C106.65 68.7917 102.895 70.0631 100.097 72.2145C97.3385 74.3354 95.5072 77.3162 95.1516 80.7697C95.1116 81.1608 95.0908 81.5784 95.0908 82.0199V235.51L95.0909 235.51Z" fill="white"/>
<path fill-rule="evenodd" clip-rule="evenodd" d="M151.424 83.7454C150.7 83.7086 150.131 83.1099 150.131 82.3844C150.131 81.6317 150.741 81.0214 151.494 81.0214C151.545 81.0214 151.597 81.0245 151.649 81.0301L171.245 82.6811C171.97 82.7179 172.539 83.3166 172.539 84.0421C172.539 84.7948 171.928 85.4051 171.176 85.4051C171.124 85.4051 171.072 85.4023 171.021 85.3963L151.424 83.7454Z" fill="#00AB6B"/>
<path fill-rule="evenodd" clip-rule="evenodd" d="M118.902 174.775L115.387 181.568C115.279 181.777 115.301 182.014 115.447 182.199C115.591 182.383 115.817 182.461 116.045 182.406L122.897 180.737C123.087 180.691 123.231 180.567 123.303 180.384C123.375 180.202 123.356 180.013 123.249 179.849L119.912 174.725C119.796 174.546 119.607 174.449 119.393 174.46C119.179 174.47 119.001 174.585 118.902 174.775Z" fill="#D8F3E9" stroke="#00AB6B" stroke-width="1.8" stroke-linecap="round" stroke-linejoin="round"/>
<path d="M131.677 172.838L132.334 181.317" stroke="#00AB6B" stroke-width="1.8" stroke-linecap="round" stroke-linejoin="round"/>
<path d="M137.095 178.529C136.274 179.72 136.055 180.901 136.437 182.071" stroke="#00AB6B" stroke-width="1.8" stroke-linecap="round" stroke-linejoin="round"/>
<path d="M141.236 170.65C144.962 168.397 145.195 171.855 141.585 175.838C147.213 178.084 145.855 179.636 141.663 181.529" stroke="#00AB6B" stroke-width="1.8" stroke-linecap="round" stroke-linejoin="round"/>
<path d="M148.515 176.204C146.289 177.94 146.725 179.559 149.909 179.863C153.093 180.167 152.857 178.538 149.27 176.185C145.51 173.773 144.581 171.753 146.483 170.126C151.193 166.604 149.345 172.345 148.902 174.888" stroke="#00AB6B" stroke-width="1.8" stroke-linecap="round" stroke-linejoin="round"/>
<path d="M155.027 170.095C154.882 170.63 154.948 171.112 155.174 171.173C155.399 171.234 155.699 170.85 155.843 170.316C155.987 169.781 155.922 169.299 155.696 169.238C155.471 169.177 155.171 169.561 155.027 170.095Z" stroke="#00AB6B" stroke-width="1.8" stroke-linecap="round" stroke-linejoin="round"/>
<path d="M159.181 169.934L156.742 179.496" stroke="#00AB6B" stroke-width="1.8" stroke-linecap="round" stroke-linejoin="round"/>
<path d="M160.104 178.878C159.959 179.413 160.025 179.895 160.251 179.956C160.476 180.017 160.776 179.633 160.92 179.099C161.065 178.564 160.999 178.082 160.773 178.021C160.548 177.96 160.248 178.344 160.104 178.878Z" stroke="#00AB6B" stroke-width="1.8" stroke-linecap="round" stroke-linejoin="round"/>
<path d="M171.665 162.825C171.665 161.265 172.93 160 174.49 160C176.05 160 177.315 161.265 177.315 162.825L177.312 178.038L209.613 173.698C211.161 173.49 212.585 174.577 212.793 176.125C213.001 177.672 211.914 179.096 210.367 179.304L176.963 183.791C176.279 183.884 175.618 183.834 174.995 183.647C174.363 183.457 173.78 183.131 173.258 182.674C172.738 182.219 172.338 181.684 172.065 181.083C171.79 180.477 171.65 179.829 171.65 179.151H171.661L171.665 162.825H171.665Z" fill="#D8F3E9"/>
<path fill-rule="evenodd" clip-rule="evenodd" d="M174.49 162.824L174.486 179.15C174.486 179.704 174.703 180.181 175.119 180.546C175.536 180.911 176.037 181.062 176.587 180.988L209.99 176.5C210.907 176.377 211.583 175.614 211.596 174.689L211.775 161.903C211.782 161.379 211.596 160.925 211.223 160.557C210.85 160.189 210.393 160.01 209.869 160.025L176.292 160.971C175.29 161 174.491 161.821 174.49 162.824V162.824Z" fill="white" stroke="#00AB6B" stroke-width="1.8" stroke-linecap="round" stroke-linejoin="round"/>
<path d="M64 92C118.169 111.366 175.548 115.06 235.612 100.926" stroke="#8250A3" stroke-width="1.8" stroke-linecap="round" stroke-linejoin="round"/>
<path d="M235.974 194.298C195.448 188.278 107.516 196.997 66.1455 225.663" stroke="#8250A3" stroke-width="1.8" stroke-linecap="round" stroke-linejoin="round"/>
<path d="M181.996 166.393L182.298 174.413" stroke="#00AB6B" stroke-width="1.8" stroke-linecap="round" stroke-linejoin="round"/>
<path d="M181.996 166.394C186.402 163.948 188.496 167.043 185.255 170.693C189.377 172.209 189.759 175.791 183.552 175.219" stroke="#00AB6B" stroke-width="1.8" stroke-linecap="round" stroke-linejoin="round"/>
<path d="M197.441 163.877L202.96 169.343" stroke="#00AB6B" stroke-width="1.8" stroke-linecap="round" stroke-linejoin="round"/>
<path d="M204.885 164.9L201.039 173.786" stroke="#00AB6B" stroke-width="1.8" stroke-linecap="round" stroke-linejoin="round"/>
<path d="M192.072 167.484C191.469 170.993 192.341 173.351 193.983 173.762C195.624 174.174 196.558 171.848 196.281 167.356" stroke="#00AB6B" stroke-width="1.8" stroke-linecap="round" stroke-linejoin="round"/>
<path d="M160.465 154.16C159.358 155.267 157.562 155.267 156.454 154.16C155.347 153.053 155.347 151.257 156.454 150.15L168.916 137.688C169.988 136.616 171.705 136.582 172.818 137.585L179.277 142.708L186.802 125.332C187.072 124.708 187.54 124.23 188.101 123.941L188.098 123.936L201.34 117.07C202.729 116.354 204.435 116.9 205.151 118.289C205.867 119.677 205.321 121.384 203.933 122.1L191.582 128.503L183.076 148.146C182.974 148.438 182.822 148.719 182.618 148.975C181.646 150.198 179.865 150.402 178.641 149.429L171.143 143.482L160.465 154.16H160.465Z" fill="#ECE5F1"/>
<path d="M114.357 133.154L122.368 127.269L129.725 152.445L134.629 132.337L144.275 146.723L157.19 153.426L170.923 139.694L180.405 147.214L189.396 126.452L202.638 119.585" stroke="#8250A3" stroke-width="1.8" stroke-linecap="round" stroke-linejoin="round"/>
<path d="M96 57.1017C85.3396 55.9093 76.2584 65.4484 77.0479 73" stroke="#CDB9DB" stroke-width="1.8" stroke-linecap="round" stroke-linejoin="round"/>
</svg>
