<svg width="1345" height="442" viewBox="0 0 1345 442" fill="none" xmlns="http://www.w3.org/2000/svg">
<rect width="1345" height="442" rx="10" fill="white"/>
<rect x="317.161" y="40.6608" width="338.678" height="84.6784" rx="7.2686" fill="white"/>
<rect x="317.161" y="40.6608" width="338.678" height="84.6784" rx="7.2686" stroke="#EDEDED" stroke-width="1.32156"/>
<path d="M366.514 88.5H363.276L359.539 83.56L358.577 84.7071V88.5H355.949V76.1592H358.577V81.6728L362.943 76.1592H366.181L361.278 81.9503L366.514 88.5ZM371.295 88.722C368.353 88.722 366.577 86.5758 366.577 84.0225C366.577 81.4878 368.353 79.3416 371.295 79.3416C374.255 79.3416 376.031 81.4878 376.031 84.0225C376.031 86.5758 374.255 88.722 371.295 88.722ZM371.295 86.6313C372.757 86.6313 373.589 85.4287 373.589 84.0225C373.589 82.6349 372.757 81.4323 371.295 81.4323C369.833 81.4323 369.019 82.6349 369.019 84.0225C369.019 85.4287 369.833 86.6313 371.295 86.6313ZM391.225 88.5H388.857V82.8569C388.857 82.0243 388.487 81.4323 387.525 81.4323C386.692 81.4323 386.008 81.9873 385.675 82.4684V88.5H383.307V82.8569C383.307 82.0243 382.937 81.4323 381.975 81.4323C381.16 81.4323 380.476 81.9873 380.124 82.4869V88.5H377.775V79.5636H380.124V80.7292C380.494 80.1927 381.678 79.3416 383.048 79.3416C384.361 79.3416 385.194 79.9521 385.527 80.9697C386.045 80.1557 387.229 79.3416 388.598 79.3416C390.245 79.3416 391.225 80.2112 391.225 82.0428V88.5ZM394.696 78.6015C393.937 78.6015 393.29 77.9724 393.29 77.1954C393.29 76.4183 393.937 75.8077 394.696 75.8077C395.473 75.8077 396.102 76.4183 396.102 77.1954C396.102 77.9724 395.473 78.6015 394.696 78.6015ZM395.88 88.5H393.53V79.5636H395.88V88.5ZM401.429 88.722C399.875 88.722 398.376 88.204 397.433 87.3344L398.45 85.6877C399.098 86.2983 400.43 86.9088 401.54 86.9088C402.558 86.9088 403.039 86.5018 403.039 85.9467C403.039 84.4666 397.729 85.6692 397.729 82.1539C397.729 80.6552 399.042 79.3416 401.392 79.3416C402.909 79.3416 404.112 79.8596 405 80.5627L404.056 82.1724C403.52 81.5988 402.502 81.1363 401.411 81.1363C400.559 81.1363 400.004 81.5248 400.004 82.0243C400.004 83.3565 405.296 82.2464 405.296 85.8542C405.296 87.4824 403.908 88.722 401.429 88.722ZM414.742 88.5H412.393V87.5749C411.782 88.2965 410.727 88.722 409.562 88.722C408.137 88.722 406.453 87.7599 406.453 85.7617C406.453 83.671 408.137 82.8754 409.562 82.8754C410.746 82.8754 411.801 83.264 412.393 83.967V82.7644C412.393 81.8578 411.616 81.2658 410.431 81.2658C409.469 81.2658 408.581 81.6173 407.823 82.3204L406.935 80.7477C408.026 79.7856 409.432 79.3416 410.838 79.3416C412.874 79.3416 414.742 80.1557 414.742 82.7274V88.5ZM410.505 87.1309C411.264 87.1309 412.004 86.8718 412.393 86.3538V85.2437C412.004 84.7256 411.264 84.4666 410.505 84.4666C409.58 84.4666 408.822 84.9476 408.822 85.8172C408.822 86.6498 409.58 87.1309 410.505 87.1309ZM419.423 88.5H417.073V79.5636H419.423V80.7847C420.052 79.9891 421.162 79.3416 422.272 79.3416V81.6358C422.106 81.5988 421.883 81.5803 421.624 81.5803C420.847 81.5803 419.811 82.0243 419.423 82.5979V88.5ZM424.906 78.6015C424.147 78.6015 423.5 77.9724 423.5 77.1954C423.5 76.4183 424.147 75.8077 424.906 75.8077C425.683 75.8077 426.312 76.4183 426.312 77.1954C426.312 77.9724 425.683 78.6015 424.906 78.6015ZM426.09 88.5H423.74V79.5636H426.09V88.5ZM431.639 88.722C430.085 88.722 428.586 88.204 427.643 87.3344L428.66 85.6877C429.308 86.2983 430.64 86.9088 431.75 86.9088C432.768 86.9088 433.249 86.5018 433.249 85.9467C433.249 84.4666 427.939 85.6692 427.939 82.1539C427.939 80.6552 429.252 79.3416 431.602 79.3416C433.119 79.3416 434.322 79.8596 435.21 80.5627L434.266 82.1724C433.73 81.5988 432.712 81.1363 431.621 81.1363C430.77 81.1363 430.215 81.5248 430.215 82.0243C430.215 83.3565 435.506 82.2464 435.506 85.8542C435.506 87.4824 434.118 88.722 431.639 88.722ZM447.596 88.722C443.84 88.722 442.027 86.6128 442.027 83.5785V76.1592H444.691V83.486C444.691 85.2067 445.69 86.3908 447.596 86.3908C449.501 86.3908 450.482 85.2067 450.482 83.486V76.1592H453.165V83.56C453.165 86.6313 451.351 88.722 447.596 88.722ZM458.538 88.722C456.891 88.722 456.003 87.8709 456.003 86.2798V81.6173H454.523V79.5636H456.003V77.1213H458.371V79.5636H460.184V81.6173H458.371V85.6507C458.371 86.2058 458.667 86.6313 459.185 86.6313C459.537 86.6313 459.87 86.5018 459.999 86.3723L460.499 88.1485C460.147 88.463 459.518 88.722 458.538 88.722ZM469.507 88.5H467.157V87.5749C466.547 88.2965 465.492 88.722 464.327 88.722C462.902 88.722 461.218 87.7599 461.218 85.7617C461.218 83.671 462.902 82.8754 464.327 82.8754C465.511 82.8754 466.565 83.264 467.157 83.967V82.7644C467.157 81.8578 466.38 81.2658 465.196 81.2658C464.234 81.2658 463.346 81.6173 462.587 82.3204L461.699 80.7477C462.791 79.7856 464.197 79.3416 465.603 79.3416C467.638 79.3416 469.507 80.1557 469.507 82.7274V88.5ZM465.27 87.1309C466.029 87.1309 466.769 86.8718 467.157 86.3538V85.2437C466.769 84.7256 466.029 84.4666 465.27 84.4666C464.345 84.4666 463.587 84.9476 463.587 85.8172C463.587 86.6498 464.345 87.1309 465.27 87.1309ZM485.289 88.5H482.92V82.8569C482.92 82.0243 482.55 81.4323 481.588 81.4323C480.756 81.4323 480.071 81.9873 479.738 82.4684V88.5H477.37V82.8569C477.37 82.0243 477 81.4323 476.038 81.4323C475.224 81.4323 474.539 81.9873 474.188 82.4869V88.5H471.838V79.5636H474.188V80.7292C474.558 80.1927 475.742 79.3416 477.111 79.3416C478.425 79.3416 479.257 79.9521 479.59 80.9697C480.108 80.1557 481.292 79.3416 482.661 79.3416C484.308 79.3416 485.289 80.2112 485.289 82.0428V88.5ZM495.309 88.5H492.959V87.5749C492.348 88.2965 491.294 88.722 490.128 88.722C488.703 88.722 487.02 87.7599 487.02 85.7617C487.02 83.671 488.703 82.8754 490.128 82.8754C491.312 82.8754 492.367 83.264 492.959 83.967V82.7644C492.959 81.8578 492.182 81.2658 490.998 81.2658C490.036 81.2658 489.148 81.6173 488.389 82.3204L487.501 80.7477C488.592 79.7856 489.999 79.3416 491.405 79.3416C493.44 79.3416 495.309 80.1557 495.309 82.7274V88.5ZM491.072 87.1309C491.83 87.1309 492.57 86.8718 492.959 86.3538V85.2437C492.57 84.7256 491.83 84.4666 491.072 84.4666C490.147 84.4666 489.388 84.9476 489.388 85.8172C489.388 86.6498 490.147 87.1309 491.072 87.1309ZM513.012 88.5H510.014C509.755 88.2595 509.441 87.9449 509.089 87.5749C508.164 88.278 507.036 88.722 505.722 88.722C503.465 88.722 501.652 87.5379 501.652 85.1512C501.652 83.2825 502.891 82.3019 504.297 81.5988C503.816 80.6922 503.483 79.7671 503.483 78.9345C503.483 77.2694 504.963 75.9742 507.017 75.9742C508.756 75.9742 510.255 76.9363 510.255 78.583C510.255 80.4702 508.738 81.2658 507.221 81.9688C507.591 82.4684 507.979 82.9309 508.294 83.301C508.645 83.745 508.997 84.1521 509.33 84.5591C509.848 83.7635 510.236 82.8939 510.458 82.1724L512.346 83.0419C511.902 84.0225 511.328 85.0772 510.625 86.0207C511.365 86.8163 512.142 87.6304 513.012 88.5ZM506.055 86.8718C506.684 86.8718 507.295 86.6313 507.831 86.2428C507.276 85.6322 506.758 85.0401 506.462 84.6701C506.055 84.1706 505.629 83.6155 505.222 83.0419C504.575 83.5045 504.149 84.0781 504.149 84.9291C504.149 86.1318 505.037 86.8718 506.055 86.8718ZM505.833 78.99C505.833 79.4896 506.055 80.0631 506.37 80.6552C507.406 80.1557 508.22 79.6191 508.22 78.7125C508.22 78.0649 507.739 77.6764 507.128 77.6764C506.407 77.6764 505.833 78.2315 505.833 78.99ZM521.751 88.5H519.124V76.1592H521.751V88.5ZM532.527 88.5H530.177V83.0975C530.177 81.8578 529.529 81.4323 528.53 81.4323C527.605 81.4323 526.884 81.9503 526.495 82.4869V88.5H524.145V79.5636H526.495V80.7292C527.069 80.0446 528.16 79.3416 529.622 79.3416C531.583 79.3416 532.527 80.4517 532.527 82.1909V88.5ZM543.371 88.5H541.002V87.3529C540.299 88.241 539.319 88.722 538.246 88.722C535.988 88.722 534.286 87.0198 534.286 84.041C534.286 81.1178 535.97 79.3416 538.246 79.3416C539.3 79.3416 540.299 79.8041 541.002 80.7107V76.1592H543.371V88.5ZM538.967 86.6313C539.763 86.6313 540.614 86.2058 541.002 85.6137V82.4499C540.614 81.8578 539.763 81.4323 538.967 81.4323C537.635 81.4323 536.71 82.4869 536.71 84.041C536.71 85.5767 537.635 86.6313 538.967 86.6313ZM549.901 88.722C547.181 88.722 545.127 86.8903 545.127 84.0225C545.127 81.4323 547.033 79.3416 549.753 79.3416C552.417 79.3416 554.23 81.3398 554.23 84.2631V84.7811H547.588C547.736 85.9097 548.643 86.8533 550.16 86.8533C550.918 86.8533 551.973 86.5203 552.547 85.9652L553.583 87.4824C552.695 88.2965 551.288 88.722 549.901 88.722ZM551.954 83.19C551.899 82.3389 551.307 81.2103 549.753 81.2103C548.291 81.2103 547.662 82.3019 547.551 83.19H551.954ZM561.034 88.722C559.979 88.722 558.999 88.278 558.277 87.3529V91.9043H555.927V79.5636H558.277V80.6922C558.962 79.8226 559.942 79.3416 561.034 79.3416C563.328 79.3416 564.993 81.0437 564.993 84.0225C564.993 87.0013 563.328 88.722 561.034 88.722ZM560.294 86.6313C561.645 86.6313 562.551 85.5767 562.551 84.0225C562.551 82.4869 561.645 81.4323 560.294 81.4323C559.535 81.4323 558.666 81.8763 558.277 82.4499V85.6137C558.666 86.1688 559.535 86.6313 560.294 86.6313ZM570.914 88.722C568.194 88.722 566.141 86.8903 566.141 84.0225C566.141 81.4323 568.046 79.3416 570.766 79.3416C573.43 79.3416 575.244 81.3398 575.244 84.2631V84.7811H568.601C568.749 85.9097 569.656 86.8533 571.173 86.8533C571.932 86.8533 572.986 86.5203 573.56 85.9652L574.596 87.4824C573.708 88.2965 572.302 88.722 570.914 88.722ZM572.968 83.19C572.912 82.3389 572.32 81.2103 570.766 81.2103C569.304 81.2103 568.675 82.3019 568.564 83.19H572.968ZM585.322 88.5H582.972V83.0975C582.972 81.8578 582.325 81.4323 581.326 81.4323C580.401 81.4323 579.679 81.9503 579.291 82.4869V88.5H576.941V79.5636H579.291V80.7292C579.864 80.0446 580.956 79.3416 582.417 79.3416C584.379 79.3416 585.322 80.4517 585.322 82.1909V88.5ZM596.166 88.5H593.798V87.3529C593.095 88.241 592.114 88.722 591.041 88.722C588.784 88.722 587.082 87.0198 587.082 84.041C587.082 81.1178 588.765 79.3416 591.041 79.3416C592.096 79.3416 593.095 79.8041 593.798 80.7107V76.1592H596.166V88.5ZM591.763 86.6313C592.558 86.6313 593.409 86.2058 593.798 85.6137V82.4499C593.409 81.8578 592.558 81.4323 591.763 81.4323C590.431 81.4323 589.505 82.4869 589.505 84.041C589.505 85.5767 590.431 86.6313 591.763 86.6313ZM602.696 88.722C599.976 88.722 597.923 86.8903 597.923 84.0225C597.923 81.4323 599.828 79.3416 602.548 79.3416C605.212 79.3416 607.026 81.3398 607.026 84.2631V84.7811H600.383C600.531 85.9097 601.438 86.8533 602.955 86.8533C603.714 86.8533 604.768 86.5203 605.342 85.9652L606.378 87.4824C605.49 88.2965 604.084 88.722 602.696 88.722ZM604.75 83.19C604.694 82.3389 604.102 81.2103 602.548 81.2103C601.086 81.2103 600.457 82.3019 600.346 83.19H604.75ZM617.104 88.5H614.754V83.0975C614.754 81.8578 614.107 81.4323 613.108 81.4323C612.183 81.4323 611.461 81.9503 611.073 82.4869V88.5H608.723V79.5636H611.073V80.7292C611.646 80.0446 612.738 79.3416 614.199 79.3416C616.161 79.3416 617.104 80.4517 617.104 82.1909V88.5Z" fill="#333333"/>
<rect x="689.161" y="40.6608" width="338.678" height="84.6784" rx="7.2686" fill="white"/>
<rect x="689.161" y="40.6608" width="338.678" height="84.6784" rx="7.2686" stroke="#EDEDED" stroke-width="1.32156"/>
<path d="M829.614 88.5H826.376L822.639 83.56L821.677 84.7071V88.5H819.05V76.1592H821.677V81.6728L826.043 76.1592H829.281L824.378 81.9503L829.614 88.5ZM834.395 88.722C831.453 88.722 829.677 86.5758 829.677 84.0225C829.677 81.4878 831.453 79.3416 834.395 79.3416C837.355 79.3416 839.131 81.4878 839.131 84.0225C839.131 86.5758 837.355 88.722 834.395 88.722ZM834.395 86.6313C835.857 86.6313 836.689 85.4287 836.689 84.0225C836.689 82.6349 835.857 81.4323 834.395 81.4323C832.933 81.4323 832.119 82.6349 832.119 84.0225C832.119 85.4287 832.933 86.6313 834.395 86.6313ZM854.326 88.5H851.957V82.8569C851.957 82.0243 851.587 81.4323 850.625 81.4323C849.793 81.4323 849.108 81.9873 848.775 82.4684V88.5H846.407V82.8569C846.407 82.0243 846.037 81.4323 845.075 81.4323C844.26 81.4323 843.576 81.9873 843.224 82.4869V88.5H840.875V79.5636H843.224V80.7292C843.594 80.1927 844.779 79.3416 846.148 79.3416C847.461 79.3416 848.294 79.9521 848.627 80.9697C849.145 80.1557 850.329 79.3416 851.698 79.3416C853.345 79.3416 854.326 80.2112 854.326 82.0428V88.5ZM857.796 78.6015C857.037 78.6015 856.39 77.9724 856.39 77.1954C856.39 76.4183 857.037 75.8077 857.796 75.8077C858.573 75.8077 859.202 76.4183 859.202 77.1954C859.202 77.9724 858.573 78.6015 857.796 78.6015ZM858.98 88.5H856.63V79.5636H858.98V88.5ZM864.529 88.722C862.975 88.722 861.476 88.204 860.533 87.3344L861.55 85.6877C862.198 86.2983 863.53 86.9088 864.64 86.9088C865.658 86.9088 866.139 86.5018 866.139 85.9467C866.139 84.4666 860.829 85.6692 860.829 82.1539C860.829 80.6552 862.142 79.3416 864.492 79.3416C866.009 79.3416 867.212 79.8596 868.1 80.5627L867.156 82.1724C866.62 81.5988 865.602 81.1363 864.511 81.1363C863.66 81.1363 863.105 81.5248 863.105 82.0243C863.105 83.3565 868.396 82.2464 868.396 85.8542C868.396 87.4824 867.008 88.722 864.529 88.722ZM877.842 88.5H875.493V87.5749C874.882 88.2965 873.828 88.722 872.662 88.722C871.237 88.722 869.554 87.7599 869.554 85.7617C869.554 83.671 871.237 82.8754 872.662 82.8754C873.846 82.8754 874.901 83.264 875.493 83.967V82.7644C875.493 81.8578 874.716 81.2658 873.531 81.2658C872.569 81.2658 871.681 81.6173 870.923 82.3204L870.035 80.7477C871.126 79.7856 872.532 79.3416 873.939 79.3416C875.974 79.3416 877.842 80.1557 877.842 82.7274V88.5ZM873.605 87.1309C874.364 87.1309 875.104 86.8718 875.493 86.3538V85.2437C875.104 84.7256 874.364 84.4666 873.605 84.4666C872.68 84.4666 871.922 84.9476 871.922 85.8172C871.922 86.6498 872.68 87.1309 873.605 87.1309ZM882.523 88.5H880.173V79.5636H882.523V80.7847C883.152 79.9891 884.262 79.3416 885.372 79.3416V81.6358C885.206 81.5988 884.984 81.5803 884.725 81.5803C883.947 81.5803 882.911 82.0243 882.523 82.5979V88.5ZM888.006 78.6015C887.247 78.6015 886.6 77.9724 886.6 77.1954C886.6 76.4183 887.247 75.8077 888.006 75.8077C888.783 75.8077 889.412 76.4183 889.412 77.1954C889.412 77.9724 888.783 78.6015 888.006 78.6015ZM889.19 88.5H886.84V79.5636H889.19V88.5ZM894.739 88.722C893.185 88.722 891.686 88.204 890.743 87.3344L891.76 85.6877C892.408 86.2983 893.74 86.9088 894.85 86.9088C895.868 86.9088 896.349 86.5018 896.349 85.9467C896.349 84.4666 891.039 85.6692 891.039 82.1539C891.039 80.6552 892.353 79.3416 894.702 79.3416C896.219 79.3416 897.422 79.8596 898.31 80.5627L897.367 82.1724C896.83 81.5988 895.812 81.1363 894.721 81.1363C893.87 81.1363 893.315 81.5248 893.315 82.0243C893.315 83.3565 898.606 82.2464 898.606 85.8542C898.606 87.4824 897.219 88.722 894.739 88.722Z" fill="#333333"/>
<rect x="227.161" y="182.661" width="238.678" height="84.6784" rx="7.2686" fill="white"/>
<rect x="227.161" y="182.661" width="238.678" height="84.6784" rx="7.2686" stroke="#EDEDED" stroke-width="1.32156"/>
<path d="M318.393 230.5H313.527V218.159H318.393C322.26 218.159 324.943 220.62 324.943 224.339C324.943 228.058 322.26 230.5 318.393 230.5ZM318.393 228.187C320.835 228.187 322.26 226.43 322.26 224.339C322.26 222.156 320.928 220.472 318.393 220.472H316.154V228.187H318.393ZM327.917 220.601C327.159 220.601 326.511 219.972 326.511 219.195C326.511 218.418 327.159 217.808 327.917 217.808C328.694 217.808 329.323 218.418 329.323 219.195C329.323 219.972 328.694 220.601 327.917 220.601ZM329.101 230.5H326.752V221.564H329.101V230.5ZM333.781 230.5H331.431V221.564H333.781V222.785C334.41 221.989 335.52 221.342 336.63 221.342V223.636C336.464 223.599 336.242 223.58 335.983 223.58C335.206 223.58 334.17 224.024 333.781 224.598V230.5ZM342.298 230.722C339.579 230.722 337.525 228.89 337.525 226.023C337.525 223.432 339.431 221.342 342.15 221.342C344.815 221.342 346.628 223.34 346.628 226.263V226.781H339.986C340.134 227.91 341.04 228.853 342.557 228.853C343.316 228.853 344.371 228.52 344.944 227.965L345.98 229.482C345.092 230.296 343.686 230.722 342.298 230.722ZM344.352 225.19C344.297 224.339 343.705 223.21 342.15 223.21C340.689 223.21 340.06 224.302 339.949 225.19H344.352ZM357.058 230.5H354.116L351.748 227.059L350.675 228.206V230.5H348.325V218.159H350.675V225.541L354.061 221.564H356.947L353.413 225.616L357.058 230.5ZM361.224 230.722C359.577 230.722 358.689 229.871 358.689 228.28V223.617H357.209V221.564H358.689V219.121H361.057V221.564H362.87V223.617H361.057V227.651C361.057 228.206 361.353 228.631 361.871 228.631C362.223 228.631 362.556 228.502 362.685 228.372L363.185 230.148C362.833 230.463 362.204 230.722 361.224 230.722ZM372.859 230.5H370.51V229.371C369.899 230.056 368.826 230.722 367.364 230.722C365.403 230.722 364.478 229.649 364.478 227.91V221.564H366.828V226.985C366.828 228.224 367.475 228.631 368.475 228.631C369.381 228.631 370.103 228.132 370.51 227.614V221.564H372.859V230.5ZM377.542 230.5H375.193V221.564H377.542V222.785C378.171 221.989 379.281 221.342 380.392 221.342V223.636C380.225 223.599 380.003 223.58 379.744 223.58C378.967 223.58 377.931 224.024 377.542 224.598V230.5Z" fill="#333333"/>
<rect x="523.161" y="182.661" width="298.678" height="84.6784" rx="7.2686" fill="white"/>
<rect x="523.161" y="182.661" width="298.678" height="84.6784" rx="7.2686" stroke="#EDEDED" stroke-width="1.32156"/>
<path d="M614.192 230.5H609.326V218.159H614.192C618.059 218.159 620.742 220.62 620.742 224.339C620.742 228.058 618.059 230.5 614.192 230.5ZM614.192 228.187C616.634 228.187 618.059 226.43 618.059 224.339C618.059 222.156 616.727 220.472 614.192 220.472H611.953V228.187H614.192ZM623.716 220.601C622.958 220.601 622.31 219.972 622.31 219.195C622.31 218.418 622.958 217.808 623.716 217.808C624.493 217.808 625.122 218.418 625.122 219.195C625.122 219.972 624.493 220.601 623.716 220.601ZM624.9 230.5H622.551V221.564H624.9V230.5ZM629.58 230.5H627.23V221.564H629.58V222.785C630.209 221.989 631.319 221.342 632.429 221.342V223.636C632.263 223.599 632.041 223.58 631.782 223.58C631.005 223.58 629.969 224.024 629.58 224.598V230.5ZM638.097 230.722C635.378 230.722 633.324 228.89 633.324 226.023C633.324 223.432 635.23 221.342 637.949 221.342C640.614 221.342 642.427 223.34 642.427 226.263V226.781H635.785C635.933 227.91 636.839 228.853 638.356 228.853C639.115 228.853 640.17 228.52 640.743 227.965L641.779 229.482C640.891 230.296 639.485 230.722 638.097 230.722ZM640.151 225.19C640.096 224.339 639.503 223.21 637.949 223.21C636.488 223.21 635.859 224.302 635.748 225.19H640.151ZM652.857 230.5H649.915L647.547 227.059L646.474 228.206V230.5H644.124V218.159H646.474V225.541L649.86 221.564H652.746L649.212 225.616L652.857 230.5ZM657.023 230.722C655.376 230.722 654.488 229.871 654.488 228.28V223.617H653.008V221.564H654.488V219.121H656.856V221.564H658.669V223.617H656.856V227.651C656.856 228.206 657.152 228.631 657.67 228.631C658.022 228.631 658.355 228.502 658.484 228.372L658.984 230.148C658.632 230.463 658.003 230.722 657.023 230.722ZM668.658 230.5H666.309V229.371C665.698 230.056 664.625 230.722 663.163 230.722C661.202 230.722 660.277 229.649 660.277 227.91V221.564H662.627V226.985C662.627 228.224 663.274 228.631 664.273 228.631C665.18 228.631 665.902 228.132 666.309 227.614V221.564H668.658V230.5ZM673.341 230.5H670.992V221.564H673.341V222.785C673.97 221.989 675.08 221.342 676.191 221.342V223.636C676.024 223.599 675.802 223.58 675.543 223.58C674.766 223.58 673.73 224.024 673.341 224.598V230.5ZM688.017 230.722C684.261 230.722 682.448 228.613 682.448 225.579V218.159H685.112V225.486C685.112 227.207 686.111 228.391 688.017 228.391C689.923 228.391 690.903 227.207 690.903 225.486V218.159H693.586V225.56C693.586 228.631 691.773 230.722 688.017 230.722ZM698.959 230.722C697.312 230.722 696.424 229.871 696.424 228.28V223.617H694.944V221.564H696.424V219.121H698.793V221.564H700.606V223.617H698.793V227.651C698.793 228.206 699.089 228.631 699.607 228.631C699.958 228.631 700.291 228.502 700.421 228.372L700.92 230.148C700.569 230.463 699.94 230.722 698.959 230.722ZM709.929 230.5H707.579V229.575C706.968 230.296 705.914 230.722 704.748 230.722C703.324 230.722 701.64 229.76 701.64 227.762C701.64 225.671 703.324 224.875 704.748 224.875C705.932 224.875 706.987 225.264 707.579 225.967V224.764C707.579 223.858 706.802 223.266 705.618 223.266C704.656 223.266 703.768 223.617 703.009 224.32L702.121 222.748C703.213 221.786 704.619 221.342 706.025 221.342C708.06 221.342 709.929 222.156 709.929 224.727V230.5ZM705.692 229.131C706.45 229.131 707.19 228.872 707.579 228.354V227.244C707.19 226.726 706.45 226.467 705.692 226.467C704.767 226.467 704.008 226.948 704.008 227.817C704.008 228.65 704.767 229.131 705.692 229.131ZM725.71 230.5H723.342V224.857C723.342 224.024 722.972 223.432 722.01 223.432C721.177 223.432 720.493 223.987 720.16 224.468V230.5H717.791V224.857C717.791 224.024 717.421 223.432 716.459 223.432C715.645 223.432 714.961 223.987 714.609 224.487V230.5H712.259V221.564H714.609V222.729C714.979 222.193 716.163 221.342 717.532 221.342C718.846 221.342 719.679 221.952 720.012 222.97C720.53 222.156 721.714 221.342 723.083 221.342C724.73 221.342 725.71 222.211 725.71 224.043V230.5ZM735.73 230.5H733.38V229.575C732.77 230.296 731.715 230.722 730.55 230.722C729.125 230.722 727.441 229.76 727.441 227.762C727.441 225.671 729.125 224.875 730.55 224.875C731.734 224.875 732.788 225.264 733.38 225.967V224.764C733.38 223.858 732.603 223.266 731.419 223.266C730.457 223.266 729.569 223.617 728.81 224.32L727.922 222.748C729.014 221.786 730.42 221.342 731.826 221.342C733.861 221.342 735.73 222.156 735.73 224.727V230.5ZM731.493 229.131C732.252 229.131 732.992 228.872 733.38 228.354V227.244C732.992 226.726 732.252 226.467 731.493 226.467C730.568 226.467 729.81 226.948 729.81 227.817C729.81 228.65 730.568 229.131 731.493 229.131Z" fill="#333333"/>
<rect x="879.161" y="182.661" width="238.678" height="84.6784" rx="7.2686" fill="white"/>
<rect x="879.161" y="182.661" width="238.678" height="84.6784" rx="7.2686" stroke="#EDEDED" stroke-width="1.32156"/>
<path d="M970.393 230.5H965.527V218.159H970.393C974.26 218.159 976.943 220.62 976.943 224.339C976.943 228.058 974.26 230.5 970.393 230.5ZM970.393 228.187C972.835 228.187 974.26 226.43 974.26 224.339C974.26 222.156 972.928 220.472 970.393 220.472H968.154V228.187H970.393ZM979.917 220.601C979.159 220.601 978.511 219.972 978.511 219.195C978.511 218.418 979.159 217.808 979.917 217.808C980.694 217.808 981.323 218.418 981.323 219.195C981.323 219.972 980.694 220.601 979.917 220.601ZM981.101 230.5H978.752V221.564H981.101V230.5ZM985.781 230.5H983.431V221.564H985.781V222.785C986.41 221.989 987.52 221.342 988.63 221.342V223.636C988.464 223.599 988.242 223.58 987.983 223.58C987.206 223.58 986.17 224.024 985.781 224.598V230.5ZM994.298 230.722C991.579 230.722 989.525 228.89 989.525 226.023C989.525 223.432 991.431 221.342 994.15 221.342C996.815 221.342 998.628 223.34 998.628 226.263V226.781H991.986C992.134 227.91 993.04 228.853 994.557 228.853C995.316 228.853 996.371 228.52 996.944 227.965L997.98 229.482C997.092 230.296 995.686 230.722 994.298 230.722ZM996.352 225.19C996.297 224.339 995.705 223.21 994.15 223.21C992.689 223.21 992.06 224.302 991.949 225.19H996.352ZM1009.06 230.5H1006.12L1003.75 227.059L1002.67 228.206V230.5H1000.33V218.159H1002.67V225.541L1006.06 221.564H1008.95L1005.41 225.616L1009.06 230.5ZM1013.22 230.722C1011.58 230.722 1010.69 229.871 1010.69 228.28V223.617H1009.21V221.564H1010.69V219.121H1013.06V221.564H1014.87V223.617H1013.06V227.651C1013.06 228.206 1013.35 228.631 1013.87 228.631C1014.22 228.631 1014.56 228.502 1014.69 228.372L1015.19 230.148C1014.83 230.463 1014.2 230.722 1013.22 230.722ZM1024.86 230.5H1022.51V229.371C1021.9 230.056 1020.83 230.722 1019.36 230.722C1017.4 230.722 1016.48 229.649 1016.48 227.91V221.564H1018.83V226.985C1018.83 228.224 1019.48 228.631 1020.47 228.631C1021.38 228.631 1022.1 228.132 1022.51 227.614V221.564H1024.86V230.5ZM1029.54 230.5H1027.19V221.564H1029.54V222.785C1030.17 221.989 1031.28 221.342 1032.39 221.342V223.636C1032.23 223.599 1032 223.58 1031.74 223.58C1030.97 223.58 1029.93 224.024 1029.54 224.598V230.5Z" fill="#333333"/>
<path d="M998.5 178V160C998.5 156.686 995.814 154 992.5 154H352.5C349.186 154 346.5 156.686 346.5 160V178" stroke="#00B162" stroke-width="2" stroke-miterlimit="0" stroke-linejoin="bevel"/>
<path d="M673.48 154.635C673.48 154.083 673.032 153.636 672.48 153.636C671.928 153.636 671.48 154.084 671.48 154.636L673.48 154.635ZM671.48 154.636L671.487 178L673.487 178L673.48 154.635L671.48 154.636Z" fill="#00B162"/>
<rect x="40.6608" y="324.661" width="148.678" height="76.6784" rx="7.2686" fill="white"/>
<rect x="40.6608" y="324.661" width="148.678" height="76.6784" rx="7.2686" stroke="#EDEDED" stroke-width="1.32156"/>
<path d="M108.569 357H105.553L103.129 352.615H101.205V357H98.5775V344.659H104.35C106.922 344.659 108.494 346.343 108.494 348.637C108.494 350.82 107.125 351.986 105.793 352.301L108.569 357ZM103.962 350.302C105.016 350.302 105.812 349.673 105.812 348.637C105.812 347.601 105.016 346.972 103.962 346.972H101.205V350.302H103.962ZM111.576 347.101C110.818 347.101 110.17 346.472 110.17 345.695C110.17 344.918 110.818 344.308 111.576 344.308C112.354 344.308 112.983 344.918 112.983 345.695C112.983 346.472 112.354 347.101 111.576 347.101ZM112.761 357H110.411V348.064H112.761V357ZM118.31 357.222C116.756 357.222 115.257 356.704 114.313 355.834L115.331 354.188C115.979 354.798 117.311 355.409 118.421 355.409C119.438 355.409 119.92 355.002 119.92 354.447C119.92 352.967 114.61 354.169 114.61 350.654C114.61 349.155 115.923 347.842 118.273 347.842C119.79 347.842 120.993 348.36 121.881 349.063L120.937 350.672C120.401 350.099 119.383 349.636 118.291 349.636C117.44 349.636 116.885 350.025 116.885 350.524C116.885 351.856 122.177 350.746 122.177 354.354C122.177 355.982 120.789 357.222 118.31 357.222ZM132.641 357H129.699L127.331 353.559L126.258 354.706V357H123.908V344.659H126.258V352.041L129.643 348.064H132.53L128.996 352.116L132.641 357ZM74.2821 380H71.6363V371.36L68.1579 380H67.0108L63.5325 371.36V380H60.9052V367.659H64.5871L67.5844 375.116L70.5817 367.659H74.2821V380ZM84.3928 380H82.043V379.075C81.4325 379.796 80.3779 380.222 79.2122 380.222C77.7876 380.222 76.1039 379.26 76.1039 377.262C76.1039 375.171 77.7876 374.375 79.2122 374.375C80.3964 374.375 81.451 374.764 82.043 375.467V374.264C82.043 373.358 81.2659 372.766 80.0818 372.766C79.1197 372.766 78.2316 373.117 77.4731 373.82L76.585 372.248C77.6766 371.286 79.0827 370.842 80.4889 370.842C82.5241 370.842 84.3928 371.656 84.3928 374.227V380ZM80.1558 378.631C80.9144 378.631 81.6545 378.372 82.043 377.854V376.744C81.6545 376.226 80.9144 375.967 80.1558 375.967C79.2307 375.967 78.4722 376.448 78.4722 377.317C78.4722 378.15 79.2307 378.631 80.1558 378.631ZM95.1048 380H92.755V374.597C92.755 373.358 92.1075 372.932 91.1084 372.932C90.1833 372.932 89.4617 373.45 89.0732 373.987V380H86.7234V371.064H89.0732V372.229C89.6467 371.545 90.7383 370.842 92.2 370.842C94.1612 370.842 95.1048 371.952 95.1048 373.691V380ZM105.153 380H102.803V379.075C102.193 379.796 101.138 380.222 99.9726 380.222C98.548 380.222 96.8643 379.26 96.8643 377.262C96.8643 375.171 98.548 374.375 99.9726 374.375C101.157 374.375 102.211 374.764 102.803 375.467V374.264C102.803 373.358 102.026 372.766 100.842 372.766C99.8801 372.766 98.992 373.117 98.2335 373.82L97.3454 372.248C98.437 371.286 99.8431 370.842 101.249 370.842C103.284 370.842 105.153 371.656 105.153 374.227V380ZM100.916 378.631C101.675 378.631 102.415 378.372 102.803 377.854V376.744C102.415 376.226 101.675 375.967 100.916 375.967C99.9911 375.967 99.2326 376.448 99.2326 377.317C99.2326 378.15 99.9911 378.631 100.916 378.631ZM111.147 383.626C109.612 383.626 108.427 383.275 107.299 382.294L108.353 380.592C109.075 381.388 110.019 381.702 111.147 381.702C112.276 381.702 113.608 381.203 113.608 379.445V378.538C112.905 379.426 111.943 379.944 110.851 379.944C108.612 379.944 106.91 378.372 106.91 375.393C106.91 372.47 108.594 370.842 110.851 370.842C111.924 370.842 112.886 371.304 113.608 372.211V371.064H115.976V379.389C115.976 382.794 113.349 383.626 111.147 383.626ZM111.591 377.854C112.368 377.854 113.219 377.41 113.608 376.836V373.95C113.219 373.358 112.368 372.932 111.591 372.932C110.259 372.932 109.334 373.857 109.334 375.393C109.334 376.929 110.259 377.854 111.591 377.854ZM122.507 380.222C119.787 380.222 117.733 378.39 117.733 375.523C117.733 372.932 119.639 370.842 122.359 370.842C125.023 370.842 126.836 372.84 126.836 375.763V376.281H120.194C120.342 377.41 121.249 378.353 122.766 378.353C123.524 378.353 124.579 378.02 125.152 377.465L126.189 378.982C125.3 379.796 123.894 380.222 122.507 380.222ZM124.56 374.69C124.505 373.839 123.913 372.71 122.359 372.71C120.897 372.71 120.268 373.802 120.157 374.69H124.56ZM141.984 380H139.616V374.357C139.616 373.524 139.246 372.932 138.284 372.932C137.451 372.932 136.767 373.487 136.434 373.968V380H134.065V374.357C134.065 373.524 133.695 372.932 132.733 372.932C131.919 372.932 131.235 373.487 130.883 373.987V380H128.533V371.064H130.883V372.229C131.253 371.693 132.437 370.842 133.806 370.842C135.12 370.842 135.953 371.452 136.286 372.47C136.804 371.656 137.988 370.842 139.357 370.842C141.004 370.842 141.984 371.711 141.984 373.543V380ZM148.489 380.222C145.769 380.222 143.715 378.39 143.715 375.523C143.715 372.932 145.621 370.842 148.341 370.842C151.005 370.842 152.818 372.84 152.818 375.763V376.281H146.176C146.324 377.41 147.231 378.353 148.748 378.353C149.506 378.353 150.561 378.02 151.135 377.465L152.171 378.982C151.283 379.796 149.876 380.222 148.489 380.222ZM150.542 374.69C150.487 373.839 149.895 372.71 148.341 372.71C146.879 372.71 146.25 373.802 146.139 374.69H150.542ZM162.897 380H160.547V374.597C160.547 373.358 159.9 372.932 158.9 372.932C157.975 372.932 157.254 373.45 156.865 373.987V380H154.515V371.064H156.865V372.229C157.439 371.545 158.53 370.842 159.992 370.842C161.953 370.842 162.897 371.952 162.897 373.691V380ZM168.227 380.222C166.581 380.222 165.692 379.371 165.692 377.78V373.117H164.212V371.064H165.692V368.621H168.061V371.064H169.874V373.117H168.061V377.151C168.061 377.706 168.357 378.131 168.875 378.131C169.226 378.131 169.559 378.002 169.689 377.872L170.188 379.648C169.837 379.963 169.208 380.222 168.227 380.222Z" fill="#333333"/>
<rect x="214.661" y="324.661" width="185.678" height="76.6784" rx="7.2686" fill="white"/>
<rect x="214.661" y="324.661" width="185.678" height="76.6784" rx="7.2686" stroke="#EDEDED" stroke-width="1.32156"/>
<path d="M264.57 368.5H261.942V356.159H267.715C270.398 356.159 271.859 357.972 271.859 360.137C271.859 362.283 270.379 364.115 267.715 364.115H264.57V368.5ZM267.363 361.802C268.4 361.802 269.177 361.155 269.177 360.137C269.177 359.101 268.4 358.472 267.363 358.472H264.57V361.802H267.363ZM277.325 368.722C274.606 368.722 272.552 366.89 272.552 364.023C272.552 361.432 274.458 359.342 277.177 359.342C279.842 359.342 281.655 361.34 281.655 364.263V364.781H275.013C275.161 365.91 276.067 366.853 277.584 366.853C278.343 366.853 279.398 366.52 279.971 365.965L281.007 367.482C280.119 368.296 278.713 368.722 277.325 368.722ZM279.379 363.19C279.324 362.339 278.731 361.21 277.177 361.21C275.716 361.21 275.087 362.302 274.976 363.19H279.379ZM296.803 368.5H294.435V362.857C294.435 362.024 294.065 361.432 293.103 361.432C292.27 361.432 291.585 361.987 291.252 362.468V368.5H288.884V362.857C288.884 362.024 288.514 361.432 287.552 361.432C286.738 361.432 286.053 361.987 285.702 362.487V368.5H283.352V359.564H285.702V360.729C286.072 360.193 287.256 359.342 288.625 359.342C289.939 359.342 290.771 359.952 291.104 360.97C291.622 360.156 292.806 359.342 294.176 359.342C295.822 359.342 296.803 360.211 296.803 362.043V368.5ZM306.823 368.5H304.473V367.575C303.862 368.296 302.808 368.722 301.642 368.722C300.218 368.722 298.534 367.76 298.534 365.762C298.534 363.671 300.218 362.875 301.642 362.875C302.826 362.875 303.881 363.264 304.473 363.967V362.764C304.473 361.858 303.696 361.266 302.512 361.266C301.55 361.266 300.662 361.617 299.903 362.32L299.015 360.748C300.107 359.786 301.513 359.342 302.919 359.342C304.954 359.342 306.823 360.156 306.823 362.727V368.5ZM302.586 367.131C303.344 367.131 304.085 366.872 304.473 366.354V365.244C304.085 364.726 303.344 364.467 302.586 364.467C301.661 364.467 300.902 364.948 300.902 365.817C300.902 366.65 301.661 367.131 302.586 367.131ZM312.373 368.722C310.819 368.722 309.32 368.204 308.376 367.334L309.394 365.688C310.042 366.298 311.374 366.909 312.484 366.909C313.501 366.909 313.982 366.502 313.982 365.947C313.982 364.467 308.672 365.669 308.672 362.154C308.672 360.655 309.986 359.342 312.336 359.342C313.853 359.342 315.056 359.86 315.944 360.563L315 362.172C314.463 361.599 313.446 361.136 312.354 361.136C311.503 361.136 310.948 361.525 310.948 362.024C310.948 363.356 316.24 362.246 316.24 365.854C316.24 367.482 314.852 368.722 312.373 368.722ZM325.686 368.5H323.336V367.575C322.726 368.296 321.671 368.722 320.506 368.722C319.081 368.722 317.397 367.76 317.397 365.762C317.397 363.671 319.081 362.875 320.506 362.875C321.69 362.875 322.744 363.264 323.336 363.967V362.764C323.336 361.858 322.559 361.266 321.375 361.266C320.413 361.266 319.525 361.617 318.766 362.32L317.878 360.748C318.97 359.786 320.376 359.342 321.782 359.342C323.817 359.342 325.686 360.156 325.686 362.727V368.5ZM321.449 367.131C322.208 367.131 322.948 366.872 323.336 366.354V365.244C322.948 364.726 322.208 364.467 321.449 364.467C320.524 364.467 319.765 364.948 319.765 365.817C319.765 366.65 320.524 367.131 321.449 367.131ZM330.366 368.5H328.017V359.564H330.366V360.785C330.996 359.989 332.106 359.342 333.216 359.342V361.636C333.049 361.599 332.827 361.58 332.568 361.58C331.791 361.58 330.755 362.024 330.366 362.598V368.5ZM342.399 368.5H340.049V367.575C339.439 368.296 338.384 368.722 337.219 368.722C335.794 368.722 334.11 367.76 334.11 365.762C334.11 363.671 335.794 362.875 337.219 362.875C338.403 362.875 339.457 363.264 340.049 363.967V362.764C340.049 361.858 339.272 361.266 338.088 361.266C337.126 361.266 336.238 361.617 335.479 362.32L334.591 360.748C335.683 359.786 337.089 359.342 338.495 359.342C340.53 359.342 342.399 360.156 342.399 362.727V368.5ZM338.162 367.131C338.921 367.131 339.661 366.872 340.049 366.354V365.244C339.661 364.726 338.921 364.467 338.162 364.467C337.237 364.467 336.479 364.948 336.479 365.817C336.479 366.65 337.237 367.131 338.162 367.131ZM353.111 368.5H350.761V363.097C350.761 361.858 350.114 361.432 349.115 361.432C348.19 361.432 347.468 361.95 347.08 362.487V368.5H344.73V359.564H347.08V360.729C347.653 360.045 348.745 359.342 350.206 359.342C352.168 359.342 353.111 360.452 353.111 362.191V368.5Z" fill="#333333"/>
<rect x="425.661" y="324.661" width="120.678" height="76.6784" rx="7.2686" fill="white"/>
<rect x="425.661" y="324.661" width="120.678" height="76.6784" rx="7.2686" stroke="#EDEDED" stroke-width="1.32156"/>
<path d="M457.66 357H455.033V344.659H457.66V357ZM468.436 357H466.086V351.597C466.086 350.358 465.438 349.932 464.439 349.932C463.514 349.932 462.792 350.45 462.404 350.987V357H460.054V348.064H462.404V349.229C462.978 348.545 464.069 347.842 465.531 347.842C467.492 347.842 468.436 348.952 468.436 350.691V357ZM473.766 357.222C472.119 357.222 471.231 356.371 471.231 354.78V350.117H469.751V348.064H471.231V345.621H473.599V348.064H475.413V350.117H473.599V354.151C473.599 354.706 473.896 355.131 474.414 355.131C474.765 355.131 475.098 355.002 475.228 354.872L475.727 356.648C475.376 356.963 474.747 357.222 473.766 357.222ZM481.22 357.222C478.5 357.222 476.447 355.39 476.447 352.523C476.447 349.932 478.352 347.842 481.072 347.842C483.736 347.842 485.55 349.84 485.55 352.763V353.281H478.907C479.056 354.41 479.962 355.353 481.479 355.353C482.238 355.353 483.292 355.02 483.866 354.465L484.902 355.982C484.014 356.796 482.608 357.222 481.22 357.222ZM483.274 351.69C483.218 350.839 482.626 349.71 481.072 349.71C479.611 349.71 478.982 350.802 478.87 351.69H483.274ZM489.597 357H487.247V348.064H489.597V349.285C490.226 348.489 491.336 347.842 492.446 347.842V350.136C492.279 350.099 492.057 350.08 491.798 350.08C491.021 350.08 489.985 350.524 489.597 351.098V357ZM502.295 357H499.946V351.597C499.946 350.358 499.298 349.932 498.299 349.932C497.374 349.932 496.652 350.45 496.264 350.987V357H493.914V348.064H496.264V349.229C496.837 348.545 497.929 347.842 499.391 347.842C501.352 347.842 502.295 348.952 502.295 350.691V357ZM512.344 357H509.994V356.075C509.384 356.796 508.329 357.222 507.163 357.222C505.739 357.222 504.055 356.26 504.055 354.262C504.055 352.171 505.739 351.375 507.163 351.375C508.347 351.375 509.402 351.764 509.994 352.467V351.264C509.994 350.358 509.217 349.766 508.033 349.766C507.071 349.766 506.183 350.117 505.424 350.82L504.536 349.248C505.628 348.286 507.034 347.842 508.44 347.842C510.475 347.842 512.344 348.656 512.344 351.227V357ZM508.107 355.631C508.866 355.631 509.606 355.372 509.994 354.854V353.744C509.606 353.226 508.866 352.967 508.107 352.967C507.182 352.967 506.423 353.448 506.423 354.317C506.423 355.15 507.182 355.631 508.107 355.631ZM517.024 357H514.675V344.659H517.024V357ZM476.289 380H473.291L472.533 377.909H467.241L466.464 380H463.467L468.24 367.659H471.534L476.289 380ZM471.811 375.597L469.887 370.287L467.963 375.597H471.811ZM485.501 380H483.151V378.871C482.541 379.556 481.468 380.222 480.006 380.222C478.045 380.222 477.12 379.149 477.12 377.41V371.064H479.469V376.485C479.469 377.724 480.117 378.131 481.116 378.131C482.023 378.131 482.744 377.632 483.151 377.114V371.064H485.501V380ZM496.345 380H493.977V378.853C493.274 379.741 492.293 380.222 491.22 380.222C488.963 380.222 487.261 378.52 487.261 375.541C487.261 372.618 488.944 370.842 491.22 370.842C492.275 370.842 493.274 371.304 493.977 372.211V367.659H496.345V380ZM491.942 378.131C492.737 378.131 493.588 377.706 493.977 377.114V373.95C493.588 373.358 492.737 372.932 491.942 372.932C490.609 372.932 489.684 373.987 489.684 375.541C489.684 377.077 490.609 378.131 491.942 378.131ZM499.841 370.101C499.082 370.101 498.435 369.472 498.435 368.695C498.435 367.918 499.082 367.308 499.841 367.308C500.618 367.308 501.247 367.918 501.247 368.695C501.247 369.472 500.618 370.101 499.841 370.101ZM501.025 380H498.675V371.064H501.025V380ZM506.352 380.222C504.705 380.222 503.817 379.371 503.817 377.78V373.117H502.337V371.064H503.817V368.621H506.186V371.064H507.999V373.117H506.186V377.151C506.186 377.706 506.482 378.131 507 378.131C507.351 378.131 507.684 378.002 507.814 377.872L508.313 379.648C507.962 379.963 507.333 380.222 506.352 380.222Z" fill="#333333"/>
<rect x="571.661" y="324.661" width="201.678" height="76.6784" rx="7.2686" fill="white"/>
<rect x="571.661" y="324.661" width="201.678" height="76.6784" rx="7.2686" stroke="#EDEDED" stroke-width="1.32156"/>
<path d="M604.478 357H596.633V344.659H599.26V354.687H604.478V357ZM610.263 357.222C607.543 357.222 605.49 355.39 605.49 352.523C605.49 349.932 607.395 347.842 610.115 347.842C612.779 347.842 614.593 349.84 614.593 352.763V353.281H607.95C608.099 354.41 609.005 355.353 610.522 355.353C611.281 355.353 612.335 355.02 612.909 354.465L613.945 355.982C613.057 356.796 611.651 357.222 610.263 357.222ZM612.317 351.69C612.261 350.839 611.669 349.71 610.115 349.71C608.654 349.71 608.024 350.802 607.913 351.69H612.317ZM619.953 360.626C618.418 360.626 617.234 360.275 616.105 359.294L617.16 357.592C617.881 358.388 618.825 358.702 619.953 358.702C621.082 358.702 622.414 358.203 622.414 356.445V355.538C621.711 356.426 620.749 356.944 619.657 356.944C617.419 356.944 615.716 355.372 615.716 352.393C615.716 349.47 617.4 347.842 619.657 347.842C620.73 347.842 621.692 348.304 622.414 349.211V348.064H624.782V356.389C624.782 359.794 622.155 360.626 619.953 360.626ZM620.397 354.854C621.174 354.854 622.026 354.41 622.414 353.836V350.95C622.026 350.358 621.174 349.932 620.397 349.932C619.065 349.932 618.14 350.857 618.14 352.393C618.14 353.929 619.065 354.854 620.397 354.854ZM634.828 357H632.478V356.075C631.868 356.796 630.813 357.222 629.648 357.222C628.223 357.222 626.539 356.26 626.539 354.262C626.539 352.171 628.223 351.375 629.648 351.375C630.832 351.375 631.886 351.764 632.478 352.467V351.264C632.478 350.358 631.701 349.766 630.517 349.766C629.555 349.766 628.667 350.117 627.908 350.82L627.02 349.248C628.112 348.286 629.518 347.842 630.924 347.842C632.959 347.842 634.828 348.656 634.828 351.227V357ZM630.591 355.631C631.35 355.631 632.09 355.372 632.478 354.854V353.744C632.09 353.226 631.35 352.967 630.591 352.967C629.666 352.967 628.907 353.448 628.907 354.317C628.907 355.15 629.666 355.631 630.591 355.631ZM639.508 357H637.159V344.659H639.508V357ZM644.651 356.093C644.651 357.481 643.874 358.721 642.745 359.535L641.727 358.702C642.319 358.388 643.004 357.611 643.152 356.963C643.097 356.981 642.93 357.019 642.801 357.019C642.097 357.019 641.542 356.482 641.542 355.686C641.542 354.872 642.208 354.206 642.986 354.206C643.855 354.206 644.651 354.891 644.651 356.093ZM657.338 357.222C653.637 357.222 650.77 354.632 650.77 350.839C650.77 347.046 653.637 344.456 657.338 344.456C660.058 344.456 661.63 345.936 662.5 347.472L660.243 348.582C659.725 347.583 658.614 346.787 657.338 346.787C655.099 346.787 653.471 348.508 653.471 350.839C653.471 353.17 655.099 354.891 657.338 354.891C658.614 354.891 659.725 354.114 660.243 353.096L662.5 354.188C661.612 355.723 660.058 357.222 657.338 357.222ZM668.153 357.222C665.211 357.222 663.435 355.076 663.435 352.523C663.435 349.988 665.211 347.842 668.153 347.842C671.113 347.842 672.889 349.988 672.889 352.523C672.889 355.076 671.113 357.222 668.153 357.222ZM668.153 355.131C669.614 355.131 670.447 353.929 670.447 352.523C670.447 351.135 669.614 349.932 668.153 349.932C666.691 349.932 665.877 351.135 665.877 352.523C665.877 353.929 666.691 355.131 668.153 355.131ZM688.083 357H685.715V351.357C685.715 350.524 685.345 349.932 684.383 349.932C683.55 349.932 682.866 350.487 682.533 350.968V357H680.164V351.357C680.164 350.524 679.794 349.932 678.832 349.932C678.018 349.932 677.334 350.487 676.982 350.987V357H674.632V348.064H676.982V349.229C677.352 348.693 678.536 347.842 679.905 347.842C681.219 347.842 682.052 348.452 682.385 349.47C682.903 348.656 684.087 347.842 685.456 347.842C687.103 347.842 688.083 348.711 688.083 350.543V357ZM695.494 357.222C694.44 357.222 693.459 356.778 692.738 355.853V360.404H690.388V348.064H692.738V349.192C693.422 348.323 694.403 347.842 695.494 347.842C697.789 347.842 699.454 349.544 699.454 352.523C699.454 355.501 697.789 357.222 695.494 357.222ZM694.754 355.131C696.105 355.131 697.011 354.077 697.011 352.523C697.011 350.987 696.105 349.932 694.754 349.932C693.996 349.932 693.126 350.376 692.738 350.95V354.114C693.126 354.669 693.996 355.131 694.754 355.131ZM703.524 357H701.175V344.659H703.524V357ZM707.02 347.101C706.261 347.101 705.614 346.472 705.614 345.695C705.614 344.918 706.261 344.308 707.02 344.308C707.797 344.308 708.426 344.918 708.426 345.695C708.426 346.472 707.797 347.101 707.02 347.101ZM708.204 357H705.854V348.064H708.204V357ZM718.249 357H715.899V356.075C715.289 356.796 714.234 357.222 713.069 357.222C711.644 357.222 709.96 356.26 709.96 354.262C709.96 352.171 711.644 351.375 713.069 351.375C714.253 351.375 715.307 351.764 715.899 352.467V351.264C715.899 350.358 715.122 349.766 713.938 349.766C712.976 349.766 712.088 350.117 711.329 350.82L710.441 349.248C711.533 348.286 712.939 347.842 714.345 347.842C716.38 347.842 718.249 348.656 718.249 351.227V357ZM714.012 355.631C714.771 355.631 715.511 355.372 715.899 354.854V353.744C715.511 353.226 714.771 352.967 714.012 352.967C713.087 352.967 712.329 353.448 712.329 354.317C712.329 355.15 713.087 355.631 714.012 355.631ZM728.961 357H726.611V351.597C726.611 350.358 725.964 349.932 724.965 349.932C724.04 349.932 723.318 350.45 722.93 350.987V357H720.58V348.064H722.93V349.229C723.503 348.545 724.595 347.842 726.056 347.842C728.018 347.842 728.961 348.952 728.961 350.691V357ZM735.457 357.222C732.7 357.222 730.721 355.279 730.721 352.523C730.721 349.784 732.7 347.842 735.457 347.842C737.289 347.842 738.399 348.637 738.991 349.451L737.455 350.894C737.03 350.265 736.382 349.932 735.568 349.932C734.144 349.932 733.144 350.968 733.144 352.523C733.144 354.077 734.144 355.131 735.568 355.131C736.382 355.131 737.03 354.761 737.455 354.169L738.991 355.594C738.399 356.426 737.289 357.222 735.457 357.222ZM744.727 357.222C742.007 357.222 739.954 355.39 739.954 352.523C739.954 349.932 741.859 347.842 744.579 347.842C747.243 347.842 749.057 349.84 749.057 352.763V353.281H742.414C742.562 354.41 743.469 355.353 744.986 355.353C745.745 355.353 746.799 355.02 747.373 354.465L748.409 355.982C747.521 356.796 746.115 357.222 744.727 357.222ZM746.781 351.69C746.725 350.839 746.133 349.71 744.579 349.71C743.117 349.71 742.488 350.802 742.377 351.69H746.781ZM637.778 380H634.781C634.522 379.759 634.208 379.445 633.856 379.075C632.931 379.778 631.802 380.222 630.489 380.222C628.232 380.222 626.418 379.038 626.418 376.651C626.418 374.782 627.658 373.802 629.064 373.099C628.583 372.192 628.25 371.267 628.25 370.435C628.25 368.769 629.73 367.474 631.784 367.474C633.523 367.474 635.022 368.436 635.022 370.083C635.022 371.97 633.505 372.766 631.987 373.469C632.357 373.968 632.746 374.431 633.061 374.801C633.412 375.245 633.764 375.652 634.097 376.059C634.615 375.264 635.003 374.394 635.225 373.672L637.112 374.542C636.668 375.523 636.095 376.577 635.392 377.521C636.132 378.316 636.909 379.13 637.778 380ZM630.822 378.372C631.451 378.372 632.061 378.131 632.598 377.743C632.043 377.132 631.525 376.54 631.229 376.17C630.822 375.671 630.396 375.116 629.989 374.542C629.342 375.004 628.916 375.578 628.916 376.429C628.916 377.632 629.804 378.372 630.822 378.372ZM630.6 370.49C630.6 370.99 630.822 371.563 631.136 372.155C632.172 371.656 632.986 371.119 632.986 370.213C632.986 369.565 632.505 369.176 631.895 369.176C631.173 369.176 630.6 369.731 630.6 370.49ZM655.399 380H652.401L651.643 377.909H646.351L645.574 380H642.577L647.35 367.659H650.644L655.399 380ZM650.921 375.597L648.997 370.287L647.073 375.597H650.921ZM659.165 380H656.538V367.659H662.311C664.994 367.659 666.455 369.472 666.455 371.637C666.455 373.783 664.975 375.615 662.311 375.615H659.165V380ZM661.959 373.302C662.995 373.302 663.772 372.655 663.772 371.637C663.772 370.601 662.995 369.972 661.959 369.972H659.165V373.302H661.959ZM673.653 380.222C669.897 380.222 668.084 378.113 668.084 375.079V367.659H670.748V374.986C670.748 376.707 671.747 377.891 673.653 377.891C675.559 377.891 676.539 376.707 676.539 374.986V367.659H679.222V375.06C679.222 378.131 677.409 380.222 673.653 380.222ZM689.014 380H686.387V367.659H692.16C694.842 367.659 696.304 369.472 696.304 371.637C696.304 373.783 694.824 375.615 692.16 375.615H689.014V380ZM691.808 373.302C692.844 373.302 693.621 372.655 693.621 371.637C693.621 370.601 692.844 369.972 691.808 369.972H689.014V373.302H691.808ZM700.56 380H697.933V367.659H703.705C706.388 367.659 707.85 369.472 707.85 371.637C707.85 373.783 706.369 375.615 703.705 375.615H700.56V380ZM703.354 373.302C704.39 373.302 705.167 372.655 705.167 371.637C705.167 370.601 704.39 369.972 703.354 369.972H700.56V373.302H703.354ZM714.973 380H712.327V369.972H708.72V367.659H718.563V369.972H714.973V380Z" fill="#333333"/>
<rect x="798.661" y="324.661" width="120.678" height="76.6784" rx="7.2686" fill="white"/>
<rect x="798.661" y="324.661" width="120.678" height="76.6784" rx="7.2686" stroke="#EDEDED" stroke-width="1.32156"/>
<path d="M818.767 368.722C816.399 368.722 814.697 367.926 813.549 366.761L814.974 364.763C815.844 365.669 817.194 366.428 818.896 366.428C820.34 366.428 821.043 365.762 821.043 365.059C821.043 362.875 813.938 364.374 813.938 359.73C813.938 357.676 815.714 355.974 818.619 355.974C820.58 355.974 822.208 356.566 823.429 357.695L821.968 359.619C820.969 358.694 819.637 358.268 818.378 358.268C817.25 358.268 816.621 358.768 816.621 359.508C816.621 361.469 823.707 360.156 823.707 364.763C823.707 367.02 822.097 368.722 818.767 368.722ZM829.62 368.722C826.901 368.722 824.847 366.89 824.847 364.023C824.847 361.432 826.753 359.342 829.472 359.342C832.137 359.342 833.95 361.34 833.95 364.263V364.781H827.308C827.456 365.91 828.362 366.853 829.879 366.853C830.638 366.853 831.693 366.52 832.266 365.965L833.302 367.482C832.414 368.296 831.008 368.722 829.62 368.722ZM831.674 363.19C831.619 362.339 831.026 361.21 829.472 361.21C828.011 361.21 827.382 362.302 827.271 363.19H831.674ZM838.644 368.722C836.998 368.722 836.11 367.871 836.11 366.28V361.617H834.629V359.564H836.11V357.121H838.478V359.564H840.291V361.617H838.478V365.651C838.478 366.206 838.774 366.631 839.292 366.631C839.643 366.631 839.976 366.502 840.106 366.372L840.606 368.148C840.254 368.463 839.625 368.722 838.644 368.722ZM844.896 368.722C843.249 368.722 842.361 367.871 842.361 366.28V361.617H840.881V359.564H842.361V357.121H844.729V359.564H846.543V361.617H844.729V365.651C844.729 366.206 845.025 366.631 845.543 366.631C845.895 366.631 846.228 366.502 846.358 366.372L846.857 368.148C846.506 368.463 845.877 368.722 844.896 368.722ZM850.5 368.5H848.15V356.159H850.5V368.5ZM857.03 368.722C854.31 368.722 852.256 366.89 852.256 364.023C852.256 361.432 854.162 359.342 856.882 359.342C859.546 359.342 861.359 361.34 861.359 364.263V364.781H854.717C854.865 365.91 855.772 366.853 857.289 366.853C858.047 366.853 859.102 366.52 859.676 365.965L860.712 367.482C859.824 368.296 858.417 368.722 857.03 368.722ZM859.084 363.19C859.028 362.339 858.436 361.21 856.882 361.21C855.42 361.21 854.791 362.302 854.68 363.19H859.084ZM876.507 368.5H874.139V362.857C874.139 362.024 873.769 361.432 872.807 361.432C871.974 361.432 871.29 361.987 870.957 362.468V368.5H868.589V362.857C868.589 362.024 868.219 361.432 867.256 361.432C866.442 361.432 865.758 361.987 865.406 362.487V368.5H863.057V359.564H865.406V360.729C865.776 360.193 866.96 359.342 868.33 359.342C869.643 359.342 870.476 359.952 870.809 360.97C871.327 360.156 872.511 359.342 873.88 359.342C875.527 359.342 876.507 360.211 876.507 362.043V368.5ZM883.012 368.722C880.292 368.722 878.238 366.89 878.238 364.023C878.238 361.432 880.144 359.342 882.864 359.342C885.528 359.342 887.341 361.34 887.341 364.263V364.781H880.699C880.847 365.91 881.754 366.853 883.271 366.853C884.03 366.853 885.084 366.52 885.658 365.965L886.694 367.482C885.806 368.296 884.4 368.722 883.012 368.722ZM885.066 363.19C885.01 362.339 884.418 361.21 882.864 361.21C881.402 361.21 880.773 362.302 880.662 363.19H885.066ZM897.42 368.5H895.07V363.097C895.07 361.858 894.423 361.432 893.424 361.432C892.499 361.432 891.777 361.95 891.388 362.487V368.5H889.039V359.564H891.388V360.729C891.962 360.045 893.054 359.342 894.515 359.342C896.476 359.342 897.42 360.452 897.42 362.191V368.5ZM902.75 368.722C901.104 368.722 900.216 367.871 900.216 366.28V361.617H898.736V359.564H900.216V357.121H902.584V359.564H904.397V361.617H902.584V365.651C902.584 366.206 902.88 366.631 903.398 366.631C903.75 366.631 904.083 366.502 904.212 366.372L904.712 368.148C904.36 368.463 903.731 368.722 902.75 368.722Z" fill="#333333"/>
<rect x="944.661" y="324.661" width="185.678" height="76.6784" rx="7.2686" fill="white"/>
<rect x="944.661" y="324.661" width="185.678" height="76.6784" rx="7.2686" stroke="#EDEDED" stroke-width="1.32156"/>
<path d="M999.909 357H997.282V344.659H1006.01V346.972H999.909V349.581H1005.88V351.893H999.909V357ZM1008.96 347.101C1008.2 347.101 1007.56 346.472 1007.56 345.695C1007.56 344.918 1008.2 344.308 1008.96 344.308C1009.74 344.308 1010.37 344.918 1010.37 345.695C1010.37 346.472 1009.74 347.101 1008.96 347.101ZM1010.15 357H1007.8V348.064H1010.15V357ZM1020.86 357H1018.51V351.597C1018.51 350.358 1017.86 349.932 1016.86 349.932C1015.94 349.932 1015.21 350.45 1014.83 350.987V357H1012.48V348.064H1014.83V349.229C1015.4 348.545 1016.49 347.842 1017.95 347.842C1019.91 347.842 1020.86 348.952 1020.86 350.691V357ZM1030.91 357H1028.56V356.075C1027.95 356.796 1026.89 357.222 1025.72 357.222C1024.3 357.222 1022.62 356.26 1022.62 354.262C1022.62 352.171 1024.3 351.375 1025.72 351.375C1026.91 351.375 1027.96 351.764 1028.56 352.467V351.264C1028.56 350.358 1027.78 349.766 1026.59 349.766C1025.63 349.766 1024.74 350.117 1023.99 350.82L1023.1 349.248C1024.19 348.286 1025.6 347.842 1027 347.842C1029.04 347.842 1030.91 348.656 1030.91 351.227V357ZM1026.67 355.631C1027.43 355.631 1028.17 355.372 1028.56 354.854V353.744C1028.17 353.226 1027.43 352.967 1026.67 352.967C1025.74 352.967 1024.98 353.448 1024.98 354.317C1024.98 355.15 1025.74 355.631 1026.67 355.631ZM1041.62 357H1039.27V351.597C1039.27 350.358 1038.62 349.932 1037.62 349.932C1036.7 349.932 1035.97 350.45 1035.59 350.987V357H1033.24V348.064H1035.59V349.229C1036.16 348.545 1037.25 347.842 1038.71 347.842C1040.67 347.842 1041.62 348.952 1041.62 350.691V357ZM1048.11 357.222C1045.36 357.222 1043.38 355.279 1043.38 352.523C1043.38 349.784 1045.36 347.842 1048.11 347.842C1049.95 347.842 1051.06 348.637 1051.65 349.451L1050.11 350.894C1049.69 350.265 1049.04 349.932 1048.22 349.932C1046.8 349.932 1045.8 350.968 1045.8 352.523C1045.8 354.077 1046.8 355.131 1048.22 355.131C1049.04 355.131 1049.69 354.761 1050.11 354.169L1051.65 355.594C1051.06 356.426 1049.95 357.222 1048.11 357.222ZM1057.38 357.222C1054.66 357.222 1052.61 355.39 1052.61 352.523C1052.61 349.932 1054.52 347.842 1057.24 347.842C1059.9 347.842 1061.71 349.84 1061.71 352.763V353.281H1055.07C1055.22 354.41 1056.13 355.353 1057.64 355.353C1058.4 355.353 1059.46 355.02 1060.03 354.465L1061.07 355.982C1060.18 356.796 1058.77 357.222 1057.38 357.222ZM1059.44 351.69C1059.38 350.839 1058.79 349.71 1057.24 349.71C1055.77 349.71 1055.14 350.802 1055.03 351.69H1059.44ZM1078.78 357H1075.79C1075.53 356.759 1075.21 356.445 1074.86 356.075C1073.94 356.778 1072.81 357.222 1071.49 357.222C1069.24 357.222 1067.42 356.038 1067.42 353.651C1067.42 351.782 1068.66 350.802 1070.07 350.099C1069.59 349.192 1069.25 348.267 1069.25 347.435C1069.25 345.769 1070.73 344.474 1072.79 344.474C1074.53 344.474 1076.03 345.436 1076.03 347.083C1076.03 348.97 1074.51 349.766 1072.99 350.469C1073.36 350.968 1073.75 351.431 1074.06 351.801C1074.42 352.245 1074.77 352.652 1075.1 353.059C1075.62 352.264 1076.01 351.394 1076.23 350.672L1078.12 351.542C1077.67 352.523 1077.1 353.577 1076.4 354.521C1077.14 355.316 1077.91 356.13 1078.78 357ZM1071.83 355.372C1072.45 355.372 1073.07 355.131 1073.6 354.743C1073.05 354.132 1072.53 353.54 1072.23 353.17C1071.83 352.671 1071.4 352.116 1070.99 351.542C1070.35 352.004 1069.92 352.578 1069.92 353.429C1069.92 354.632 1070.81 355.372 1071.83 355.372ZM1071.6 347.49C1071.6 347.99 1071.83 348.563 1072.14 349.155C1073.18 348.656 1073.99 348.119 1073.99 347.213C1073.99 346.565 1073.51 346.176 1072.9 346.176C1072.18 346.176 1071.6 346.731 1071.6 347.49ZM1002.41 380H999.414L998.656 377.909H993.364L992.587 380H989.59L994.363 367.659H997.657L1002.41 380ZM997.934 375.597L996.01 370.287L994.086 375.597H997.934ZM1007.66 380.222C1004.9 380.222 1002.92 378.279 1002.92 375.523C1002.92 372.784 1004.9 370.842 1007.66 370.842C1009.49 370.842 1010.6 371.637 1011.19 372.451L1009.66 373.894C1009.23 373.265 1008.58 372.932 1007.77 372.932C1006.35 372.932 1005.35 373.968 1005.35 375.523C1005.35 377.077 1006.35 378.131 1007.77 378.131C1008.58 378.131 1009.23 377.761 1009.66 377.169L1011.19 378.594C1010.6 379.426 1009.49 380.222 1007.66 380.222ZM1016.89 380.222C1014.13 380.222 1012.16 378.279 1012.16 375.523C1012.16 372.784 1014.13 370.842 1016.89 370.842C1018.72 370.842 1019.83 371.637 1020.43 372.451L1018.89 373.894C1018.46 373.265 1017.82 372.932 1017 372.932C1015.58 372.932 1014.58 373.968 1014.58 375.523C1014.58 377.077 1015.58 378.131 1017 378.131C1017.82 378.131 1018.46 377.761 1018.89 377.169L1020.43 378.594C1019.83 379.426 1018.72 380.222 1016.89 380.222ZM1026.11 380.222C1023.16 380.222 1021.39 378.076 1021.39 375.523C1021.39 372.988 1023.16 370.842 1026.11 370.842C1029.07 370.842 1030.84 372.988 1030.84 375.523C1030.84 378.076 1029.07 380.222 1026.11 380.222ZM1026.11 378.131C1027.57 378.131 1028.4 376.929 1028.4 375.523C1028.4 374.135 1027.57 372.932 1026.11 372.932C1024.64 372.932 1023.83 374.135 1023.83 375.523C1023.83 376.929 1024.64 378.131 1026.11 378.131ZM1040.97 380H1038.62V378.871C1038.01 379.556 1036.93 380.222 1035.47 380.222C1033.51 380.222 1032.59 379.149 1032.59 377.41V371.064H1034.94V376.485C1034.94 377.724 1035.58 378.131 1036.58 378.131C1037.49 378.131 1038.21 377.632 1038.62 377.114V371.064H1040.97V380ZM1051.68 380H1049.33V374.597C1049.33 373.358 1048.68 372.932 1047.69 372.932C1046.76 372.932 1046.04 373.45 1045.65 373.987V380H1043.3V371.064H1045.65V372.229C1046.22 371.545 1047.32 370.842 1048.78 370.842C1050.74 370.842 1051.68 371.952 1051.68 373.691V380ZM1057.01 380.222C1055.37 380.222 1054.48 379.371 1054.48 377.78V373.117H1053V371.064H1054.48V368.621H1056.85V371.064H1058.66V373.117H1056.85V377.151C1056.85 377.706 1057.14 378.131 1057.66 378.131C1058.01 378.131 1058.34 378.002 1058.47 377.872L1058.97 379.648C1058.62 379.963 1057.99 380.222 1057.01 380.222ZM1061.43 370.101C1060.67 370.101 1060.03 369.472 1060.03 368.695C1060.03 367.918 1060.67 367.308 1061.43 367.308C1062.21 367.308 1062.84 367.918 1062.84 368.695C1062.84 369.472 1062.21 370.101 1061.43 370.101ZM1062.62 380H1060.27V371.064H1062.62V380ZM1073.33 380H1070.98V374.597C1070.98 373.358 1070.33 372.932 1069.33 372.932C1068.41 372.932 1067.68 373.45 1067.3 373.987V380H1064.95V371.064H1067.3V372.229C1067.87 371.545 1068.96 370.842 1070.42 370.842C1072.38 370.842 1073.33 371.952 1073.33 373.691V380ZM1079.32 383.626C1077.79 383.626 1076.6 383.275 1075.48 382.294L1076.53 380.592C1077.25 381.388 1078.2 381.702 1079.32 381.702C1080.45 381.702 1081.78 381.203 1081.78 379.445V378.538C1081.08 379.426 1080.12 379.944 1079.03 379.944C1076.79 379.944 1075.09 378.372 1075.09 375.393C1075.09 372.47 1076.77 370.842 1079.03 370.842C1080.1 370.842 1081.06 371.304 1081.78 372.211V371.064H1084.15V379.389C1084.15 382.794 1081.53 383.626 1079.32 383.626ZM1079.77 377.854C1080.54 377.854 1081.4 377.41 1081.78 376.836V373.95C1081.4 373.358 1080.54 372.932 1079.77 372.932C1078.44 372.932 1077.51 373.857 1077.51 375.393C1077.51 376.929 1078.44 377.854 1079.77 377.854Z" fill="#333333"/>
<rect x="1155.66" y="324.661" width="148.678" height="76.6784" rx="7.2686" fill="white"/>
<rect x="1155.66" y="324.661" width="148.678" height="76.6784" rx="7.2686" stroke="#EDEDED" stroke-width="1.32156"/>
<path d="M1225.93 368.5H1223.3V356.159H1225.93V368.5ZM1233.87 368.5H1231.22V358.472H1227.62V356.159H1237.46V358.472H1233.87V368.5Z" fill="#333333"/>
<path d="M1229 320C1229 320.552 1229.45 321 1230 321C1230.55 321 1231 320.552 1231 320H1229ZM1231 320V298H1229V320H1231ZM1224 291H121V293H1224V291ZM114 298V320H116V298H114ZM121 291C117.134 291 114 294.134 114 298H116C116 295.239 118.239 293 121 293V291ZM1231 298C1231 294.134 1227.87 291 1224 291V293C1226.76 293 1229 295.239 1229 298H1231Z" fill="#00B162"/>
<path d="M1037.13 320C1037.13 320.552 1037.58 321 1038.13 321C1038.68 321 1039.13 320.552 1039.13 320H1037.13ZM1039.13 320V291.554H1037.13V320H1039.13Z" fill="#00B162"/>
<path d="M486.555 292.35V322.9" stroke="#00B162" stroke-width="2" stroke-miterlimit="0" stroke-linecap="round" stroke-linejoin="bevel"/>
<path d="M671.5 320C671.5 320.552 671.948 321 672.5 321C673.052 321 673.5 320.552 673.5 320H671.5ZM673.5 320V272H671.5V320H673.5Z" fill="#00B162"/>
<path d="M861 324C861 324.552 861.448 325 862 325C862.552 325 863 324.552 863 324H861ZM863 324V292.574H861V324H863Z" fill="#00B162"/>
<path d="M312.86 323.558C312.86 324.11 313.308 324.558 313.86 324.558C314.412 324.558 314.86 324.11 314.86 323.558H312.86ZM314.86 323.558V291.681H312.86V323.558H314.86Z" fill="#00B162"/>
<path d="M487.5 130C487.5 129.448 487.052 129 486.5 129C485.948 129 485.5 129.448 485.5 130H487.5ZM485.5 130V148H487.5V130H485.5ZM480.5 153H352.5V155H480.5V153ZM345.5 160V178H347.5V160H345.5ZM352.5 153C348.634 153 345.5 156.134 345.5 160H347.5C347.5 157.239 349.739 155 352.5 155V153ZM485.5 148C485.5 150.761 483.261 153 480.5 153V155C484.366 155 487.5 151.866 487.5 148H485.5Z" fill="#00B162"/>
<path d="M487.5 130C487.5 129.448 487.052 129 486.5 129C485.948 129 485.5 129.448 485.5 130H487.5ZM485.5 130V134.75H487.5V130H485.5ZM485.5 144.25V153.75H487.5V144.25H485.5ZM485.5 163.25V172.75H487.5V163.25H485.5ZM485.5 182.25V191.75H487.5V182.25H485.5ZM485.5 201.25V210.75H487.5V201.25H485.5ZM485.5 220.25V229.75H487.5V220.25H485.5ZM485.5 239.25V248.75H487.5V239.25H485.5ZM485.5 258.25V267.75H487.5V258.25H485.5ZM485.5 277.25V286.75H487.5V277.25H485.5ZM485.5 296.25V305.75H487.5V296.25H485.5ZM485.5 315.25V320H487.5V315.25H485.5Z" fill="#00B162"/>
<path d="M859.5 130C859.5 129.448 859.052 129 858.5 129C857.948 129 857.5 129.448 857.5 130H859.5ZM857.5 130V148H859.5V130H857.5ZM864.5 155H992.5V153H864.5V155ZM997.5 160V178H999.5V160H997.5ZM992.5 155C995.261 155 997.5 157.239 997.5 160H999.5C999.5 156.134 996.366 153 992.5 153V155ZM857.5 148C857.5 151.866 860.634 155 864.5 155V153C861.739 153 859.5 150.761 859.5 148H857.5Z" fill="#00B162"/>
</svg>
