<svg width="300" height="300" viewBox="0 0 300 300" fill="none" xmlns="http://www.w3.org/2000/svg">
<path d="M216.54 73.1496C228.841 66.2934 241.157 66.2835 253.489 73.12" stroke="#FFAD01" stroke-width="1.8" stroke-linecap="round" stroke-linejoin="round"/>
<path d="M209 89.1772C221.356 70.8154 248.881 70.8835 261 89.0737" stroke="#FFAD01" stroke-width="1.8" stroke-linecap="round" stroke-linejoin="round"/>
<path d="M254.346 117.609C242.007 119.918 235.159 112.943 235.007 103.498" stroke="#FFAD01" stroke-width="1.8" stroke-linecap="round" stroke-linejoin="round"/>
<path d="M245.002 124.677C231.608 121.935 226.168 110.272 227.661 102.511C229.154 94.7493 241.624 94.7676 242.59 103.752C242.592 112.936 257.185 114.322 257.964 104.446C255.933 69.9823 201.479 77.3933 213.887 115.477" stroke="#FFAD01" stroke-width="1.8" stroke-linecap="round" stroke-linejoin="round"/>
<path d="M228.473 123.679C216.178 112.058 217.584 95.3927 228.416 90.8739C239.247 86.355 250.675 94.5169 250.074 104.273" stroke="#FFAD01" stroke-width="1.8" stroke-linecap="round" stroke-linejoin="round"/>
<path fill-rule="evenodd" clip-rule="evenodd" d="M74.6665 71.2797C66.7263 91.7925 77.4346 114.734 94.6881 126.318C116.718 120.869 131.29 97.0003 130.033 76.1453C116.297 72.3455 106.099 66.6301 99.4403 59C90.7372 65.846 82.4793 69.9391 74.6665 71.2797L74.6665 71.2797Z" fill="#CDB9DB"/>
<path fill-rule="evenodd" clip-rule="evenodd" d="M228.93 213.51C229.07 213.484 229.214 213.47 229.356 213.47C230.44 213.47 231.372 214.236 231.583 215.298C231.6 215.415 231.61 215.535 231.61 215.653C231.61 216.765 230.833 217.727 229.747 217.961C221.15 219.981 210.222 222.541 195.907 225.898C176.335 230.483 147.951 237.131 103.196 247.619C93.35 249.922 82.6293 249.329 80.3889 245.957C78.21 242.501 85.4227 238.069 96.1201 236.249C143.892 228.079 173.686 222.979 194.025 219.493C208.824 216.954 220.096 215.029 228.928 213.513L228.931 213.51H228.93Z" fill="#333333"/>
<path fill-rule="evenodd" clip-rule="evenodd" d="M91.376 242.215V86.0386C91.3764 85.4954 91.4092 84.9491 91.4652 84.4084C91.9524 79.963 94.2744 75.9171 97.8643 73.2515C101.574 70.4922 106.082 69 110.707 69C110.803 69 110.906 69.0028 111.001 69.0028C111.848 69.002 112.698 69.0532 113.539 69.1404L217.413 79.8174C221.345 80.2617 224.967 82.1851 227.542 85.1907C229.746 87.6964 231.156 90.808 231.582 94.1179C231.737 94.9579 231.817 95.817 231.817 96.6724V215.588C231.817 215.869 231.687 216.134 231.465 216.306C231.153 216.94 230.56 217.392 229.866 217.528L94.1964 244.422C94.0184 244.465 93.8345 244.488 93.6504 244.488C93.6497 244.488 93.6488 244.488 93.648 244.488C92.3938 244.488 91.3764 243.47 91.3764 242.216C91.3764 242.215 91.3764 242.215 91.3764 242.215L91.376 242.215V242.215Z" fill="#00AB6B"/>
<path fill-rule="evenodd" clip-rule="evenodd" d="M101.091 240.51L229.897 214.765V96.6679C229.897 93.5368 228.674 90.5575 226.687 88.2878C224.719 86.0413 222.006 84.4923 218.996 84.1848L118.931 73.8989C118.231 73.8269 117.521 73.7917 116.804 73.7917C112.65 73.7917 108.895 75.0631 106.097 77.2145C103.338 79.3354 101.507 82.3162 101.152 85.7697C101.112 86.1608 101.091 86.5784 101.091 87.0199L101.091 240.51Z" fill="white"/>
<path fill-rule="evenodd" clip-rule="evenodd" d="M157.424 88.7454C156.7 88.7086 156.131 88.1099 156.131 87.3844C156.131 86.6317 156.741 86.0214 157.494 86.0214C157.545 86.0214 157.597 86.0245 157.649 86.0301L177.245 87.6811C177.97 87.7179 178.539 88.3166 178.539 89.0421C178.539 89.7948 177.928 90.4051 177.176 90.4051C177.124 90.4051 177.072 90.4023 177.021 90.3963L157.424 88.7454Z" fill="#00AB6B"/>
<path fill-rule="evenodd" clip-rule="evenodd" d="M81.352 63.2797C73.4118 83.7925 84.1202 106.734 101.374 118.318C123.404 112.869 137.976 89.0003 136.719 68.1453C122.982 64.3455 112.785 58.6301 106.126 51C97.4227 57.846 89.1648 61.9391 81.352 63.2797L81.352 63.2797Z" fill="white" stroke="#8250A3" stroke-width="1.8" stroke-linecap="round" stroke-linejoin="round"/>
<path d="M91.6445 85.7546C90.5137 84.1361 90.9097 81.9065 92.5282 80.7759C94.1468 79.6451 96.3763 80.0411 97.5069 81.6596L100.519 85.9625L114.14 74.8109C115.673 73.5562 117.934 73.7827 119.189 75.316C120.444 76.8492 120.217 79.1105 118.684 80.3651L102.08 93.9587L102.073 93.9492L101.856 94.113C100.237 95.2439 98.0077 94.8479 96.8771 93.2293L91.6445 85.7549V85.7546Z" fill="#ECE5F1"/>
<path d="M94.5764 83.7072L99.809 91.1822L116.412 77.5881" stroke="#8250A3" stroke-width="1.8" stroke-linecap="round" stroke-linejoin="round"/>
<path d="M66.3775 81.1417C65.3426 73.9792 66.4476 65.351 69.5467 57.3215C75.506 56.7053 78.7421 55.9156 83.4663 53" stroke="#8250A3" stroke-width="1.8" stroke-linecap="round" stroke-linejoin="round"/>
<path d="M144.687 62.4465C145.25 66.8345 145.054 72.015 144.098 77.9884" stroke="#8250A3" stroke-width="1.8" stroke-linecap="round" stroke-linejoin="round"/>
<path fill-rule="evenodd" clip-rule="evenodd" d="M175.157 162.31L165.914 184.963C180.236 181.066 189.34 176.659 192.713 169.917L175.157 162.31Z" fill="white" stroke="#00AB6B" stroke-width="1.8" stroke-linecap="round" stroke-linejoin="round"/>
<path fill-rule="evenodd" clip-rule="evenodd" d="M183.037 165.727L170.287 149.697C161.97 152.12 157.411 153.149 155.164 153.233C152.635 152.75 150.792 151.978 149.456 151.298L139.377 165.891C145.371 167.578 150.144 170.99 153.496 176.078C157.54 180.721 164.75 183.516 176.906 185.724C178.756 186.006 180.511 184.586 180.279 183.137C180.161 182.397 178.992 181.479 178.323 181.142L180.574 182.235C181.381 182.641 183.269 182.611 183.951 181.997C185.107 180.956 184.752 178.901 183.045 178.042L184.035 178.541C185.973 179.516 188.651 178.409 187.947 175.504C187.77 174.776 187.305 174.262 186.731 173.842L185.537 173.244L186.026 173.488C189.497 175.214 191.455 169.466 187.687 167.792L183.037 165.727L183.037 165.727Z" fill="white" stroke="#00AB6B" stroke-width="1.8" stroke-linecap="round" stroke-linejoin="round"/>
<path fill-rule="evenodd" clip-rule="evenodd" d="M195.001 146.712L186.075 152.341C186.075 152.341 177.905 147.658 174.916 148.156C171.927 148.654 168.738 150.448 166.646 151.544C164.554 152.64 159.422 156.177 159.024 157.173C158.625 158.17 156.483 165.791 158.825 166.638C161.166 167.485 168.639 159.465 168.639 159.465L192.382 169.825C194.522 170.759 200.17 165.253 200.17 165.253L195.002 146.712L195.001 146.712Z" fill="white" stroke="#00AB6B" stroke-width="1.8" stroke-linecap="round" stroke-linejoin="round"/>
<path fill-rule="evenodd" clip-rule="evenodd" d="M156.607 173.547L154.699 177.18C154.257 178.023 154.371 178.999 154.997 179.716L155.441 180.226C155.947 180.806 156.644 181.075 157.408 180.985C158.171 180.896 158.787 180.472 159.145 179.792L161.274 175.737C161.628 175.063 161.63 174.325 161.281 173.649C160.931 172.972 160.327 172.548 159.573 172.447L158.906 172.358C157.948 172.231 157.057 172.692 156.607 173.547H156.607Z" fill="white" stroke="#00AB6B" stroke-width="1.8" stroke-linecap="round" stroke-linejoin="round"/>
<path fill-rule="evenodd" clip-rule="evenodd" d="M175.366 181.177L172.863 185.941C172.445 186.737 171.551 187.121 170.685 186.877L170.028 186.692C169.463 186.532 169.041 186.163 168.81 185.623C168.578 185.083 168.599 184.524 168.873 184.004L171.487 179.03C171.751 178.53 172.174 178.202 172.724 178.073C173.275 177.944 173.8 178.05 174.258 178.381L174.803 178.776C175.566 179.329 175.804 180.342 175.366 181.177Z" fill="white" stroke="#00AB6B" stroke-width="1.8" stroke-linecap="round" stroke-linejoin="round"/>
<path fill-rule="evenodd" clip-rule="evenodd" d="M170.655 175.211L171.141 175.571C172.044 176.24 172.319 177.444 171.797 178.439L168.516 184.68C168.003 185.655 166.892 186.114 165.841 185.785L165.263 185.604C164.601 185.397 164.115 184.951 163.85 184.311C163.585 183.669 163.615 183.011 163.938 182.397L167.31 175.977C167.628 175.372 168.141 174.977 168.807 174.825C169.472 174.673 170.106 174.805 170.655 175.211L170.655 175.211Z" fill="white" stroke="#00AB6B" stroke-width="1.8" stroke-linecap="round" stroke-linejoin="round"/>
<path fill-rule="evenodd" clip-rule="evenodd" d="M164.343 173.083L165.331 173.215C166.086 173.315 166.69 173.74 167.039 174.417C167.389 175.093 167.387 175.831 167.033 176.505L163.556 183.125C163.043 184.101 161.931 184.56 160.88 184.231L159.972 183.946C159.31 183.739 158.824 183.294 158.559 182.653C158.295 182.012 158.325 181.354 158.647 180.74L162.044 174.272C162.494 173.417 163.385 172.955 164.343 173.083L164.343 173.083Z" fill="white" stroke="#00AB6B" stroke-width="1.8" stroke-linecap="round" stroke-linejoin="round"/>
<path d="M183.043 178.042L178.752 175.56" stroke="#00AB6B" stroke-width="1.8" stroke-linecap="round" stroke-linejoin="round"/>
<path d="M185.536 173.245L180.61 170.829" stroke="#00AB6B" stroke-width="1.8" stroke-linecap="round" stroke-linejoin="round"/>
<path d="M178.32 181.143L176.522 180.281" stroke="#00AB6B" stroke-width="1.8" stroke-linecap="round" stroke-linejoin="round"/>
<path d="M205.402 138.442L193.943 142.926L201.914 171.521L205.999 170.225" stroke="#00AB6B" stroke-width="1.8" stroke-linecap="round" stroke-linejoin="round"/>
<path d="M122.194 131.323L152.348 147.109L136.107 170.623L121.959 165.342" stroke="#00AB6B" stroke-width="1.8" stroke-linecap="round" stroke-linejoin="round"/>
<path d="M75 139.764C76.6763 135.175 77.665 124.193 69 125.137C58.1688 126.317 42.4996 133.176 47 122.264C52.0289 110.07 50.7654 104.29 38 108.223" stroke="#8250A3" stroke-width="1.8" stroke-linecap="round"/>
</svg>
