<?xml version="1.0" encoding="UTF-8"?>
<!DOCTYPE svg PUBLIC "-//W3C//DTD SVG 1.1//EN" "http://www.w3.org/Graphics/SVG/1.1/DTD/svg11.dtd">
<!-- Creator: CorelDRAW X7 -->
<svg xmlns="http://www.w3.org/2000/svg" xml:space="preserve" width="245px" height="182px" version="1.1" style="shape-rendering:geometricPrecision; text-rendering:geometricPrecision; image-rendering:optimizeQuality; fill-rule:evenodd; clip-rule:evenodd"
viewBox="0 0 2169794 1616707"
 xmlns:xlink="http://www.w3.org/1999/xlink">
 <defs>
  <style type="text/css">
   <![CDATA[
    .str1 {stroke:#00AB6B;stroke-width:23634.2}
    .str0 {stroke:#00AB6B;stroke-width:23634.2;stroke-linecap:square}
    .fil0 {fill:none}
   ]]>
  </style>
 </defs>
 <g id="Layer_x0020_1">
  <metadata id="CorelCorpID_0Corel-Layer"/>
  <g id="_451914792">
   <path class="fil0 str0" d="M141433 581197c0,158582 57553,222419 218403,251842 85073,12921 218818,-33124 233404,-33124 49158,0 103136,116325 114547,56283 17215,-119705 -34954,-111943 70363,-218410 99907,-100992 74879,-275657 -15099,-345806 -146525,-114235 -353377,-123270 -487283,13333 -61881,63127 -134335,187854 -134335,275882z"/>
   <path class="fil0 str0" d="M1485782 920655c21343,27678 38840,44729 54190,60521 22441,23088 14783,54431 -20013,119732 67764,-17718 108777,-41781 163366,-41781 67669,23876 106295,26552 205361,-19805 289235,-135343 70383,-514716 -127330,-514716 -233361,0 -420659,207964 -275574,396049z"/>
   <path class="fil0 str0" d="M763936 1019778c0,138455 59067,246824 205143,254402 103713,5377 80655,-18144 162699,63924 66367,66387 84916,100343 169775,49520 60001,-60002 39185,-95847 -7745,-155627 -85228,-108573 -70069,-28545 -70069,-219291 0,-125990 -76554,-219290 -219290,-219290 -92698,0 -240513,126402 -240513,226362z"/>
   <path class="fil0 str0" d="M1068112 694380c16700,-48260 28297,-107468 28297,-162699"/>
   <path class="fil0 str0" d="M249745 531393c48502,48501 66896,103930 115850,42722 48340,-60440 42042,-108798 117588,-42491 107310,94185 73321,-229290 205143,-49748"/>
   <path class="fil0 str0" d="M1195445 743896c6154,-29198 28957,-59067 42441,-91961"/>
   <path class="fil0 str0" d="M1605729 821710c42769,-11367 128660,-76869 183924,-99033"/>
   <path class="fil0 str0" d="M1733062 885376c39399,-25768 101565,-58970 134402,-84888"/>
   <path class="fil0 str0" d="M1018596 1069298c9688,-29879 2760,-75784 -7072,-106111 -30284,-35259 -56729,4485 -91961,28297"/>
   <path class="fil0 str0" d="M608312 1097592c-39748,0 -71415,-2898 -106111,-14147"/>
   <line class="fil0 str0" x1="1032743" y1="1154183" x2="1032743" y2= "1147108" />
   <path class="fil0 str0" d="M601237 1203703c29952,0 59010,-4104 84885,-14151"/>
   <path class="fil0 str0" d="M686122 1359330c42639,-8060 69154,-27584 106111,-35373"/>
   <line class="fil0 str1" x1="1250157" y1="1182068" x2="1104195" y2= "1310762" />
   <line class="fil0 str1" x1="1166367" y1="1373222" x2="1305110" y2= "1246666" />
  </g>
  <rect class="fil0" width="2169794" height="1616707"/>
 </g>
</svg>
