<?xml version="1.0" encoding="UTF-8"?>
<!DOCTYPE svg PUBLIC "-//W3C//DTD SVG 1.1//EN" "http://www.w3.org/Graphics/SVG/1.1/DTD/svg11.dtd">
<!-- Creator: CorelDRAW X7 -->
<svg xmlns="http://www.w3.org/2000/svg" xml:space="preserve" width="245px" height="182px" version="1.1" style="shape-rendering:geometricPrecision; text-rendering:geometricPrecision; image-rendering:optimizeQuality; fill-rule:evenodd; clip-rule:evenodd"
viewBox="0 0 3269443 2436052"
 xmlns:xlink="http://www.w3.org/1999/xlink">
 <defs>
  <style type="text/css">
   <![CDATA[
    .str0 {stroke:#00AB6B;stroke-width:35612;stroke-linecap:square}
    .fil0 {fill:none}
   ]]>
  </style>
 </defs>
 <g id="Layer_x0020_1">
  <metadata id="CorelCorpID_0Corel-Layer"/>
  <g id="_449795176">
   <path class="fil0 str0" d="M2150959 1696393c160650,210365 606918,98249 606918,-195450 0,-97750 -101747,-252237 -185162,-308605 -325429,-184077 -643661,213485 -421756,504055z"/>
   <path class="fil0 str0" d="M2109810 1027745c60608,18874 251232,-109021 308605,-154300 -13316,-70451 -140984,-387512 -185162,-421756 -64374,12160 -350769,156516 -370511,215626 -20433,61174 159206,351768 247068,360430z"/>
   <path class="fil0 str0" d="M2685871 585415c-6976,17965 -43981,458983 -41149,473192 31417,12196 282235,55294 321139,55294 28898,-40963 104806,-453668 88093,-508159 -63809,-16466 -156955,-20327 -368083,-20327z"/>
   <path class="fil0 str0" d="M2068665 729433c27526,-14028 36673,-19379 72002,-41150"/>
   <path class="fil0 str0" d="M2891608 770577c-37929,-2913 -61881,-3614 -102551,-4503"/>
   <path class="fil0 str0" d="M2127008 816062c26541,-13104 40316,-23265 75383,-45485"/>
   <path class="fil0 str0" d="M1029694 873445c172750,-13270 322769,-30862 504055,-30862"/>
   <path class="fil0 str0" d="M2887908 952685c-47222,-4856 -74773,-9020 -119743,-17521"/>
   <path class="fil0 str0" d="M1194286 1398070c21403,0 472295,-40796 473188,-41145"/>
   <path class="fil0 str0" d="M2276002 1477153c23099,31756 35850,48989 66787,76671 60367,-32039 130516,-81204 198100,-131964"/>
   <path class="fil0 str0" d="M1369161 1778686c-5598,72835 -49826,121833 -102868,174875 -137562,55172 -352481,54279 -442331,-92581 -85338,-108118 -21620,-205292 -61724,-308605 -164719,0 -491440,58256 -545199,-144018 -36854,-195056 193996,-357902 349749,-421756 -55545,-138495 -125411,-293376 30469,-418697 97780,-78614 288782,-149177 422149,-105927 110521,74681 126856,89360 164593,205731"/>
   <path class="fil0 str0" d="M967975 1182051c38221,-12393 409853,-30862 473193,-30862"/>
  </g>
  <rect class="fil0" width="3269443" height="2436052"/>
 </g>
</svg>
