<?xml version="1.0" encoding="UTF-8"?>
<!DOCTYPE svg PUBLIC "-//W3C//DTD SVG 1.1//EN" "http://www.w3.org/Graphics/SVG/1.1/DTD/svg11.dtd">
<!-- Creator: CorelDRAW X7 -->
<svg xmlns="http://www.w3.org/2000/svg" xml:space="preserve" width="245px" height="182px" version="1.1" style="shape-rendering:geometricPrecision; text-rendering:geometricPrecision; image-rendering:optimizeQuality; fill-rule:evenodd; clip-rule:evenodd"
viewBox="0 0 6184438 4608006"
 xmlns:xlink="http://www.w3.org/1999/xlink">
 <defs>
  <style type="text/css">
   <![CDATA[
    .str1 {stroke:#00AB6B;stroke-width:67363.2}
    .str0 {stroke:#00AB6B;stroke-width:67363.2;stroke-linecap:square}
    .fil0 {fill:none}
   ]]>
  </style>
 </defs>
 <g id="Layer_x0020_1">
  <metadata id="CorelCorpID_0Corel-Layer"/>
  <g id="_451930504">
   <path class="fil0 str0" d="M2109332 2039181c114456,-18094 253087,-55008 340741,-127775 336615,-279441 292340,-1000938 -85181,-1000938 -808883,0 -821506,1218180 -255560,1128713z"/>
   <path class="fil0 str0" d="M4384318 2177087c-171698,211323 -203217,549533 -12423,784363 237877,292837 621012,29457 728850,-365174 107829,-394640 -423505,-779742 -716427,-419189z"/>
   <path class="fil0 str0" d="M1676747 668696c-27404,-91817 -54779,-159056 -85190,-246967"/>
   <line class="fil0 str0" x1="2410409" y1="438773" x2="2394435" y2= "176376" />
   <path class="fil0 str0" d="M3106222 610938c73798,-45784 123717,-84264 191672,-148180"/>
   <path class="fil0 str0" d="M2643330 1924200l318120 -114455c302147,-101164 805695,-420383 895793,-332777 74677,72615 -275641,437178 -468526,596310 -229894,155360 -449696,338239 -681490,489827 -123583,99646 -167907,200352 -191672,340741l-212965 958343c-97498,117596 -113778,148380 -212965,0 -22448,-71154 -120357,-555453 -165138,-730693 -602545,1342967 -718184,1754222 -447796,-608837 30516,-130430 -130659,-344035 -202997,-442726 -239834,-236702 -317070,-371228 -515942,-580689 -90584,-109796 -236205,-252982 -307970,-363016 -46214,-115229 -76377,-105757 0,-212965 255885,19659 906371,637988 1098101,830567"/>
   <path class="fil0 str0" d="M4286114 3135707c-350356,-3113 -691010,-1003745 -600731,-371687 77723,433350 332519,631840 690045,778597 81113,113863 -17884,784946 73675,877755 91558,92800 265366,-410490 442678,-717707 156028,2616 622071,440721 681490,334725 59429,-106005 -236664,-283403 -278180,-530341l0 -81294c103513,-615588 672038,-1256679 424269,-1430315 -209385,0 -254042,515121 -595747,875206"/>
   <path class="fil0 str1" d="M4886396 423686c735380,112135 436929,1081755 -165616,741330 -126686,-71574 9148,-302290 335432,-68318 166112,119115 93946,539583 -264755,566137 -45030,3332 -65043,4354 -111247,9052"/>
  </g>
  <rect class="fil0" width="6184438" height="4608006"/>
 </g>
</svg>
